<svg width="624" height="624" xmlns="http://www.w3.org/2000/svg" xmlns:xlink="http://www.w3.org/1999/xlink" xml:space="preserve" overflow="hidden"><g transform="translate(-328 -48)"><path d="M861.032 477 861.032 418.5 672.532 285.25 672.532 158.5C672.532 133.15 659.532 100 640.032 100 621.182 100 607.532 133.15 607.532 158.5L607.532 285.25 419.033 418.5 419.033 477 607.532 382.75 607.532 524.45 542.532 581 542.532 620 640.032 581 737.532 620 737.532 581 672.532 524.45 672.532 382.75ZM663.998 534.258 724.532 586.908 724.532 600.786 644.862 568.936 640.032 566.986 635.203 568.936 555.532 600.786 555.532 586.922 616.067 534.271 620.532 530.371 620.532 361.716 601.682 371.121 432.033 455.966 432.033 425.228 615.034 295.878 620.532 291.977 620.532 158.5C620.532 135.483 632.883 113 640.032 113 648.183 113 659.532 135.926 659.532 158.5L659.532 291.977 665.025 295.878 848.032 425.228 848.032 455.966 678.35 371.121 659.539 361.716 659.539 530.371Z" fill="#FFFFFF"/></g></svg>