<svg width="624" height="624" xmlns="http://www.w3.org/2000/svg" xmlns:xlink="http://www.w3.org/1999/xlink" xml:space="preserve" overflow="hidden"><g transform="translate(-328 -48)"><path d="M616.067 412 569.039 412C530.675 411.886 499.604 380.814 499.49 342.45L499.49 301.5 546.517 301.5C584.884 301.607 615.96 332.683 616.067 371.05ZM512.477 342.45C512.577 373.64 537.836 398.9 569.026 399L603.047 399 603.047 371.05C602.951 339.858 577.689 314.596 546.497 314.5L512.477 314.5Z" fill="#FFFFFF"/><path d="M659.539 516 620.539 516C609.769 516 601.039 507.27 601.039 496.5 601.039 485.73 609.769 477 620.539 477L659.539 477C670.309 477 679.039 485.73 679.039 496.5 679.039 507.27 670.309 516 659.539 516ZM620.539 490C616.949 490 614.039 492.91 614.039 496.5 614.039 500.09 616.949 503 620.539 503L659.539 503C663.129 503 666.039 500.09 666.039 496.5 666.039 492.91 663.129 490 659.539 490Z" fill="#FFFFFF"/><path d="M711.045 412 664.005 412 664.005 371.05C664.122 332.67 695.219 301.593 733.6 301.5L780.634 301.5 780.634 342.45C780.524 380.831 749.426 411.911 711.045 412ZM677.005 399 711.039 399C742.23 398.904 767.492 373.642 767.589 342.45L767.589 314.5 733.6 314.5C702.411 314.603 677.153 339.861 677.05 371.05Z" fill="#FFFFFF"/><path d="M640.377 594C634.301 594.012 628.353 592.265 623.25 588.969 581.416 561.883 444.928 462.992 444.928 327.669 444.928 325.647 444.928 323.633 445.033 321.604 447.915 214.306 537.234 129.661 644.532 132.544 697.905 133.978 748.337 157.306 783.988 197.051 820.032 237.034 838.284 289.944 834.558 343.646 824.84 475.7 696.193 565.023 656.991 589.262 652.004 592.36 646.248 594.001 640.377 594ZM639.896 145.5C541.566 145.565 461.047 223.679 458 321.962 457.935 323.847 457.902 325.73 457.902 327.61 457.902 456.408 589.853 551.86 630.289 578.029 636.314 581.901 644.025 581.972 650.12 578.211 688.003 554.779 812.302 468.583 821.571 342.691 825.051 292.528 808.002 243.104 774.336 205.755 741.564 168.845 695.024 147.081 645.688 145.591L645.688 145.591C643.75 145.5 641.82 145.5 639.896 145.5Z" fill="#FFFFFF"/></g></svg>