<svg width="624" height="624" xmlns="http://www.w3.org/2000/svg" xmlns:xlink="http://www.w3.org/1999/xlink" xml:space="preserve" overflow="hidden"><g transform="translate(-328 -48)"><path d="M833.05 390.55 803.8 390.55 732.3 344.4C730.35 343.1 727.75 343.1 725.8 343.75L673.8 369.75C673.8 363.9 673.15 358.05 672.5 352.2L725.8 298.9 775.2 298.9C779.1 298.9 781.7 296.3 781.7 292.4 781.7 288.5 779.1 285.9 775.2 285.9L723.2 285.9C721.25 285.9 719.95 286.55 718.65 287.85L669.25 336.6C667.3 326.85 662.75 317.75 657.55 309.95 673.8 306.05 685.5 290.45 684.2 273.55 683.55 264.45 681.6 256 677.7 247.55L740.1 235.2C742.7 234.55 745.3 232.6 745.3 229.35 750.5 185.8 737.5 154.6 727.1 129.9 725.8 127.3 725.15 124.7 723.85 122.1 722.55 118.85 718.65 116.9 715.4 118.2 712.15 119.5 710.2 123.4 711.5 126.65L711.5 126.65C712.8 129.25 713.45 131.85 714.75 135.1 724.5 158.5 735.55 185.15 732.3 223.5L671.85 236.5C662.75 220.9 651.05 207.9 640 207.9 628.95 207.9 617.25 220.9 608.15 236.5L547.05 224.8C543.8 187.1 554.85 159.8 564.6 136.4 565.9 133.8 566.55 131.2 567.85 127.95 569.15 124.7 567.85 120.8 563.95 119.5 560.7 118.2 556.8 119.5 555.5 123.4L555.5 123.4C554.2 126 553.55 128.6 552.25 131.2 541.85 155.9 529.5 187.1 534.05 230.65 534.05 233.25 536.65 235.85 539.25 236.5L601.65 248.85C597.75 256.65 595.8 265.75 595.15 274.85 593.85 291.75 604.9 307.35 621.8 311.25 615.95 319.05 612.05 328.15 609.45 337.9L561.35 288.5C560.05 287.2 558.75 286.55 556.8 286.55L504.8 286.55C500.9 286.55 498.3 289.15 498.3 293.05 498.3 296.95 500.9 299.55 504.8 299.55L554.2 299.55 607.5 352.85C606.85 358.7 606.2 364.55 606.2 370.4L554.2 344.4C552.25 343.1 549.65 343.75 547.7 345.05L476.2 391.2 446.95 391.2C443.05 391.2 440.45 393.8 440.45 397.7 440.45 401.6 443.05 404.2 446.95 404.2L478.15 404.2C479.45 404.2 480.75 403.55 481.4 402.9L551.6 358.05 606.85 385.35C607.5 390.55 608.15 395.75 609.45 400.95L545.75 400.95C541.85 400.95 539.25 403.55 539.25 407.45L539.25 483.5 472.95 565.4C471 568 471 572.55 474.25 574.5 476.85 577.1 481.4 576.45 483.35 573.85 483.35 573.85 483.35 573.85 483.35 573.85L550.95 490C551.6 488.7 552.25 487.4 552.25 486.1L552.25 414.6 612.7 414.6C614.65 420.45 617.9 426.3 621.8 431.5 600.35 438 584.75 456.85 584.75 493.25 584.75 530.3 615.3 594 639.35 594 663.4 594 693.95 529.65 693.95 493.25 693.95 456.85 678.35 438 656.9 431.5 660.8 426.3 664.05 420.45 666 414.6L726.45 414.6 726.45 486.1C726.45 487.4 727.1 489.35 727.75 490L795.35 573.2C797.3 575.8 801.85 576.45 804.45 574.5 807.05 572.55 807.7 568 805.75 565.4 805.75 565.4 805.75 565.4 805.75 565.4L740.1 483.5 740.1 407.45C740.1 403.55 737.5 400.95 733.6 400.95L669.9 400.95C671.2 395.75 671.85 390.55 672.5 385.35L727.75 358.05 797.95 402.9C799.25 403.55 799.9 404.2 801.2 404.2L832.4 404.2C836.3 404.2 838.9 401.6 838.9 397.7 838.9 393.8 836.3 390.55 833.05 390.55ZM619.2 371.05C619.2 335.3 632.85 313.2 640 313.2 647.15 313.2 660.8 335.3 660.8 371.05 660.8 406.8 647.15 428.9 640 428.9 632.85 428.9 619.2 406.8 619.2 371.05L619.2 371.05ZM608.8 274.2C608.8 254.7 632.2 220.25 640 220.25 647.8 220.25 671.2 254.05 671.2 274.2 671.2 291.1 660.8 300.2 640 300.2 619.2 300.2 608.8 291.75 608.8 274.2ZM681.6 493.25C681.6 528.35 651.7 581 640 581 628.3 581 598.4 527.7 598.4 493.25 598.4 459.45 612.7 441.9 640 441.9 667.3 441.9 681.6 459.45 681.6 493.25Z" fill="#FFFFFF"/></g></svg>