<svg width="624" height="624" xmlns="http://www.w3.org/2000/svg" xmlns:xlink="http://www.w3.org/1999/xlink" xml:space="preserve" overflow="hidden"><g transform="translate(-328 -48)"><path d="M795.649 119.643C842.5 119.633 880.489 157.604 880.5 204.455 880.505 225.635 872.586 246.05 858.302 261.688L541.648 578.023C507.08 609.653 453.417 607.27 421.787 572.702 392.159 540.321 392.12 490.688 421.698 458.26L738.352 141.925C753.983 127.578 774.432 119.626 795.649 119.643M795.649 106.643C771.076 106.617 747.399 115.865 729.349 132.539L412.305 449.271C375.761 489.074 378.404 550.965 418.206 587.509 455.668 621.903 513.232 621.862 550.644 587.416L867.695 270.683C904.261 230.906 901.658 169.017 861.881 132.451 843.82 115.848 820.181 106.637 795.649 106.643Z" fill="#FFFFFF"/><path d="M640 281.305C634.615 281.303 630.249 285.668 630.248 291.053 630.247 296.437 634.611 300.803 639.996 300.805 645.381 300.806 649.747 296.441 649.748 291.056 649.749 288.472 648.723 285.993 646.896 284.164 645.068 282.334 642.587 281.305 640 281.305Z" fill="#FFFFFF"/><path d="M662.984 304.289C657.599 304.287 653.233 308.652 653.232 314.037 653.231 319.421 657.595 323.787 662.98 323.789 668.365 323.79 672.731 319.425 672.732 314.04 672.733 311.453 671.704 308.971 669.874 307.142 668.046 305.316 665.568 304.289 662.984 304.289Z" fill="#FFFFFF"/><path d="M685.961 327.266C680.577 327.265 676.211 331.629 676.21 337.014 676.208 342.399 680.572 346.765 685.958 346.766 691.342 346.767 695.708 342.403 695.71 337.018 695.71 334.434 694.684 331.954 692.858 330.126 691.03 328.296 688.549 327.267 685.961 327.266Z" fill="#FFFFFF"/><path d="M708.945 350.25C703.561 350.249 699.195 354.613 699.194 359.998 699.192 365.383 703.556 369.749 708.942 369.75 714.326 369.751 718.692 365.387 718.694 360.002 718.694 357.414 717.666 354.933 715.836 353.103 714.008 351.277 711.529 350.251 708.945 350.25Z" fill="#FFFFFF"/><path d="M571.055 350.25C565.67 350.253 561.306 354.62 561.309 360.005 561.312 365.389 565.678 369.753 571.064 369.75 576.448 369.747 580.812 365.38 580.809 359.995 580.808 357.41 579.779 354.931 577.951 353.103 576.124 351.272 573.641 350.245 571.055 350.25Z" fill="#FFFFFF"/><path d="M594.039 373.234C588.654 373.237 584.29 377.604 584.293 382.989 584.296 388.373 588.662 392.737 594.048 392.734 599.432 392.731 603.796 388.364 603.793 382.979 603.792 380.394 602.763 377.915 600.935 376.087 599.106 374.259 596.625 373.233 594.039 373.234Z" fill="#FFFFFF"/><path d="M617.016 396.211C611.631 396.214 607.268 400.581 607.271 405.966 607.273 411.351 611.64 415.714 617.025 415.711 622.41 415.709 626.773 411.342 626.771 405.957 626.769 403.372 625.741 400.893 623.912 399.065 622.083 397.237 619.602 396.21 617.016 396.211Z" fill="#FFFFFF"/><path d="M640 419.195C634.615 419.198 630.252 423.565 630.255 428.95 630.257 434.335 634.624 438.698 640.009 438.695 645.394 438.693 649.757 434.326 649.755 428.941 649.753 426.356 648.725 423.877 646.896 422.049 645.067 420.221 642.586 419.194 640 419.195Z" fill="#FFFFFF"/><path d="M617.016 304.289C611.631 304.291 607.268 308.658 607.271 314.043 607.273 319.428 611.64 323.791 617.025 323.789 622.41 323.786 626.773 319.419 626.771 314.034 626.769 311.449 625.741 308.97 623.912 307.142 622.085 305.311 619.603 304.284 617.016 304.289Z" fill="#FFFFFF"/><path d="M640 327.266C634.615 327.265 630.249 331.629 630.248 337.014 630.247 342.399 634.611 346.765 639.996 346.766 645.381 346.767 649.747 342.403 649.748 337.018 649.749 334.434 648.723 331.954 646.896 330.126 645.068 328.296 642.587 327.267 640 327.266Z" fill="#FFFFFF"/><path d="M662.984 350.25C657.599 350.249 653.233 354.613 653.232 359.998 653.231 365.383 657.595 369.749 662.98 369.75 668.365 369.751 672.731 365.387 672.732 360.002 672.733 357.414 671.704 354.933 669.874 353.103 668.046 351.277 665.568 350.251 662.984 350.25Z" fill="#FFFFFF"/><path d="M685.961 373.234C680.577 373.237 676.213 377.604 676.216 382.989 676.219 388.373 680.585 392.737 685.971 392.734 691.355 392.731 695.719 388.364 695.716 382.979 695.715 380.394 694.686 377.915 692.858 376.087 691.029 374.259 688.548 373.233 685.961 373.234Z" fill="#FFFFFF"/><path d="M594.039 327.266C588.654 327.265 584.288 331.629 584.287 337.014 584.285 342.399 588.649 346.765 594.035 346.766 599.419 346.767 603.785 342.403 603.787 337.018 603.787 334.434 602.761 331.954 600.935 330.126 599.107 328.296 596.625 327.267 594.039 327.266Z" fill="#FFFFFF"/><path d="M617.016 350.25C611.631 350.253 607.268 354.62 607.271 360.005 607.273 365.389 611.64 369.753 617.025 369.75 622.41 369.747 626.773 365.38 626.771 359.995 626.769 357.41 625.741 354.931 623.912 353.103 622.085 351.272 619.603 350.245 617.016 350.25Z" fill="#FFFFFF"/><path d="M640 373.234C634.615 373.237 630.252 377.604 630.255 382.989 630.257 388.373 634.624 392.737 640.009 392.734 645.394 392.731 649.757 388.364 649.755 382.979 649.753 380.394 648.725 377.915 646.896 376.087 645.067 374.259 642.586 373.233 640 373.234Z" fill="#FFFFFF"/><path d="M662.984 396.211C657.599 396.21 653.233 400.575 653.232 405.96 653.231 411.344 657.595 415.71 662.98 415.711 668.365 415.713 672.731 411.348 672.732 405.963 672.733 403.376 671.704 400.894 669.874 399.065 668.046 397.238 665.568 396.212 662.984 396.211Z" fill="#FFFFFF"/></g></svg>