<svg width="624" height="624" xmlns="http://www.w3.org/2000/svg" xmlns:xlink="http://www.w3.org/1999/xlink" xml:space="preserve" overflow="hidden"><g transform="translate(-328 -48)"><path d="M660.54 460.88C660.32 469.186 662.198 477.413 666 484.8 696.103 471.982 713.664 440.365 708.64 408.035 700.431 408.828 692.514 411.496 685.5 415.835 685.921 419.528 685.921 423.257 685.5 426.95 682.969 441.552 673.726 454.117 660.54 460.88Z" fill="#FFFFFF"/><path d="M566.55 407.255C561.067 440.975 580.093 473.892 612.05 485.97 612.263 485.523 612.502 485.089 612.765 484.67 616.224 477.821 618.153 470.303 618.42 462.635 604.877 456.84 594.841 445.023 591.315 430.72L591.51 430.72C589.856 425.116 589.327 419.24 589.95 413.43 582.729 409.6 574.721 407.488 566.55 407.255Z" fill="#FFFFFF"/><path d="M603.275 370.92C606.286 373.727 609.6 376.19 613.155 378.265 629.152 368.155 649.656 368.642 665.155 379.5 672.404 375.581 678.672 370.07 683.485 363.38 658.043 342.399 621.551 341.539 595.15 361.3 597.493 364.798 600.218 368.025 603.275 370.92Z" fill="#FFFFFF"/><path d="M676.53 507.745C656.409 491.9 648.707 464.944 657.42 440.86L652.35 438C644.328 443.485 633.678 443.143 626.025 437.155L621.865 439.495C624.438 446.397 625.737 453.709 625.7 461.075 625.645 470.282 623.419 479.346 619.2 487.53 615.143 495.739 609.195 502.867 601.845 508.33 591.115 516.524 577.9 520.791 564.405 520.42 551.61 520.176 539.225 515.869 529.039 508.121 528.539 507.74 528.5 507.783 528.954 508.22 541.149 519.959 556.832 527.413 573.635 529.455 597.863 532.588 622.188 524.416 639.61 507.29 653.567 521.086 672.027 529.393 691.61 530.69L700.71 530.69C710.052 529.968 719.222 527.774 727.88 524.19 735.988 520.583 743.49 515.743 750.118 509.843 750.326 509.656 750.295 509.605 750.045 509.731 743.61 513.076 736.969 516.006 730.161 518.506 711.603 523.969 691.544 519.944 676.53 507.745Z" fill="#FFFFFF"/><path d="M773.575 434.75C768.14 407.044 748.307 384.36 721.575 375.275 719.95 374.69 718.325 374.235 716.7 373.715 727.746 332.062 703.85 289.138 662.627 276.582 661.946 276.375 661.927 276.429 662.584 276.706 693.178 289.615 707.514 324.882 694.604 355.476 686.548 374.566 669.231 388.163 648.775 391.46L648.775 399.78C656.646 403.478 661.701 411.363 661.775 420.06L661.775 421.62 666.585 424.285C682.58 403.967 709.756 396.12 734.12 404.785 745.571 408.84 755.476 416.36 762.46 426.3 768.296 434.57 771.992 444.157 773.217 454.205 773.62 457.95 773.711 461.723 773.489 465.484 773.483 465.52 773.508 465.553 773.544 465.559 773.58 465.564 773.613 465.539 773.619 465.503 774.385 462.189 774.87 458.816 775.07 455.42 775.323 451.812 775.233 447.945 775.233 447.945 775.233 447.945 775.167 446.45 775.07 444.76 774.795 441.394 774.295 438.049 773.575 434.75Z" fill="#FFFFFF"/><path d="M577.925 402.12C591.117 404.905 602.942 412.161 611.4 422.66L616.86 419.605C616.999 410.96 622.041 403.145 629.86 399.455L629.86 391.2C618.1 389.257 607.215 383.769 598.66 375.47 588.451 366.184 582.038 353.451 580.655 339.72 577.878 309.885 591.143 289.285 616.818 276.717 617.115 276.571 617.099 276.522 616.777 276.598 608.876 278.832 601.404 282.369 594.668 287.063 589.196 290.768 584.262 295.211 580.005 300.265 562.461 320.103 555.91 347.356 562.52 373 532.655 380.92 510.06 405.39 504.54 435.79 503.89 439.105 503.37 443.59 503.175 445.605 502.897 448.827 502.897 452.068 503.175 455.29 503.333 456.688 503.435 457.565 503.76 459.58 504.215 462.731 504.777 465.831 505.304 468.97 505.416 469.634 505.473 469.629 505.434 468.957 505.289 466.566 505.021 461.358 505.189 457.922 506.817 424.766 535.015 399.207 568.17 400.835 571.452 400.996 574.714 401.426 577.925 402.12Z" fill="#FFFFFF"/><path d="M662.165 126C655.022 113.543 639.134 109.235 626.677 116.378 622.672 118.674 619.351 121.995 617.055 126L362.97 568C355.79 580.436 360.051 596.337 372.487 603.517 376.439 605.798 380.921 606.999 385.485 607L893.672 607C908.031 606.998 919.67 595.356 919.668 580.997 919.668 576.434 918.467 571.951 916.185 568ZM893.5 594 385.485 594C378.305 593.999 372.485 588.179 372.486 580.999 372.486 578.709 373.091 576.46 374.24 574.479L628.333 132.467C629.481 130.465 631.141 128.805 633.142 127.657 635.1 126.522 637.323 125.926 639.585 125.93 644.255 125.934 648.568 128.43 650.895 132.479L904.926 574.5C908.517 580.717 906.387 588.668 900.17 592.259 898.144 593.429 895.839 594.031 893.5 594Z" fill="#FFFFFF"/></g></svg>