<svg width="624" height="624" xmlns="http://www.w3.org/2000/svg" xmlns:xlink="http://www.w3.org/1999/xlink" xml:space="preserve" overflow="hidden"><g transform="translate(-328 -48)"><path d="M898.096 491.911 820.096 413.911C818.878 412.69 817.224 412.002 815.5 412L766.938 412C764.606 393.383 761.192 374.918 756.714 356.698L822.715 342.742C825.191 342.22 827.139 340.308 827.707 337.841L854.948 219.269C855.755 215.77 853.572 212.281 850.073 211.475 846.575 210.669 843.086 212.852 842.28 216.35L815.961 330.88 753.38 344.114C751.384 336.802 749.278 329.528 746.951 322.378 742.422 308.401 732.777 296.652 719.95 289.488 726.176 285.359 730.8 279.223 733.054 272.101 737.428 258.202 738.619 243.498 736.538 229.077 732.19 199.941 714.976 174.301 689.654 159.247 699.404 125.707 713.145 107.956 740.672 92.6875 743.82 90.962 744.973 87.0113 743.248 83.8634 741.522 80.7153 737.572 79.5622 734.424 81.2876 734.405 81.298 734.386 81.3085 734.367 81.319 704.428 97.92 688.588 117.836 677.849 153.261 669.161 149.508 659.959 147.08 650.549 146.059 634.078 144.277 617.424 146.717 602.157 153.15 591.412 117.797 575.578 97.9005 545.672 81.319 542.542 79.5623 538.579 80.6761 536.823 83.8068 535.066 86.9375 536.18 90.8994 539.31 92.6561 539.329 92.6667 539.348 92.6772 539.367 92.6875 566.856 107.936 580.583 125.662 590.346 159.117 560.687 176.651 542.494 208.545 542.5 243 542.494 252.905 544.011 262.754 546.998 272.198 549.251 279.282 553.859 285.383 560.057 289.488 547.226 296.65 537.578 308.399 533.049 322.378 530.722 329.528 528.616 336.802 526.62 344.114L464.039 330.88 437.72 216.35C436.962 212.841 433.503 210.611 429.994 211.369 426.485 212.127 424.255 215.586 425.013 219.095 425.025 219.151 425.038 219.207 425.052 219.262L452.293 337.835C452.861 340.301 454.809 342.213 457.285 342.736L523.286 356.698C518.808 374.918 515.394 393.383 513.062 412L464.5 412C462.776 412.001 461.123 412.685 459.904 413.904L381.905 491.904C379.322 494.399 379.251 498.513 381.745 501.096 384.239 503.678 388.354 503.749 390.936 501.255 390.99 501.203 391.043 501.149 391.095 501.096L467.191 425 511.599 425C510.552 436.245 510 447.152 510 457.5 510.003 470.235 511.887 482.899 515.59 495.083L462.758 509.734C460.714 510.303 459.076 511.834 458.37 513.836L419.37 624.336C418.175 627.721 419.95 631.434 423.336 632.63 426.721 633.825 430.434 632.05 431.63 628.664L469.505 521.362 519.977 507.361C547.478 573.648 623.507 605.091 689.793 577.591 721.579 564.404 746.836 539.147 760.022 507.361L810.495 521.362 848.37 628.671C849.566 632.056 853.279 633.831 856.664 632.636 860.05 631.441 861.825 627.727 860.63 624.342L821.63 513.842C820.924 511.841 819.286 510.309 817.242 509.741L764.41 495.089C768.114 482.903 769.997 470.237 770 457.5 770 447.146 769.448 436.238 768.401 425L812.809 425 888.904 501.102C891.399 503.684 895.513 503.756 898.096 501.262 900.678 498.768 900.749 494.653 898.255 492.071 898.203 492.016 898.149 491.963 898.096 491.911ZM578.074 282C569.518 282.005 561.952 276.446 559.4 268.279 556.811 260.102 555.496 251.576 555.5 243 555.518 219.045 565.686 196.219 583.482 180.184 598.922 166.169 619.044 158.434 639.896 158.5 642.994 158.501 646.091 158.664 649.172 158.988 687.404 163.346 717.945 192.834 723.642 230.89 725.458 243.393 724.427 256.145 720.626 268.194 718.096 276.4 710.513 281.999 701.926 282L578.074 282ZM646.5 574.175 646.5 431.5C646.5 427.91 643.59 425 640 425 636.41 425 633.5 427.91 633.5 431.5L633.5 574.175C571.57 570.707 523.099 519.527 523 457.5 523.863 412.922 531.417 368.728 545.412 326.395 551.488 307.635 568.984 294.947 588.702 295L691.298 295C711.016 294.947 728.512 307.635 734.588 326.395 748.583 368.728 756.137 412.922 757 457.5 756.901 519.527 708.43 570.707 646.5 574.175Z" fill="#FFFFFF"/></g></svg>