<svg width="624" height="624" xmlns="http://www.w3.org/2000/svg" xmlns:xlink="http://www.w3.org/1999/xlink" xml:space="preserve" overflow="hidden"><g transform="translate(-328 -48)"><path d="M710.479 508.336 719.735 517.488 776.331 465.69 848.786 507.407 879.038 587.136 894.735 591.842 859.291 498.457 774.57 449.674 710.479 508.336Z" fill="#FFFFFF"/><path d="M555.532 256 568.532 256 568.532 173.996 705.032 173.996 705.032 256 718.032 256 718.032 173.996 737.532 173.996 737.532 87 692.032 87 692.032 113 659.532 113 659.532 87 614.032 87 614.032 113 581.532 113 581.532 87 536.032 87 536.032 173.996 555.532 173.996ZM549.032 160.996 549.032 100 568.532 100 568.532 126 627.032 126 627.032 100 646.532 100 646.532 126 705.032 126 705.032 100 724.532 100 724.532 160.996Z" fill="#FFFFFF"/><path d="M458.033 509.883 471.033 492.951 471.033 353.5 555.532 353.5 555.532 463.792 568.532 460.061 568.532 353.5 588.032 353.5 588.032 275.5 549.032 275.5 549.032 301.5 536.032 301.5 536.032 275.5 490.533 275.5 490.533 301.5 477.533 301.5 477.533 275.5 438.533 275.5 438.533 353.5 458.033 353.5ZM451.533 340.5 451.533 288.5 464.533 288.5 464.533 314.5 503.533 314.5 503.533 288.5 523.032 288.5 523.032 314.5 562.032 314.5 562.032 288.5 575.032 288.5 575.032 340.5Z" fill="#FFFFFF"/><path d="M607.532 249.5 607.532 303.502 667.534 303.502 667.534 249.5C667.778 232.931 654.544 219.302 637.975 219.058 621.406 218.813 607.776 232.048 607.532 248.617 607.528 248.911 607.528 249.206 607.532 249.5ZM654.534 249.5 654.534 290.502 620.532 290.502 620.532 249.5C620.349 240.111 627.812 232.35 637.201 232.167 646.59 231.983 654.351 239.446 654.534 248.835 654.539 249.057 654.539 249.278 654.534 249.5Z" fill="#FFFFFF"/><path d="M737.532 275.5 737.532 301.5 724.532 301.5 724.532 275.5 685.532 275.5 685.532 353.5 705.032 353.5 705.032 486.893 718.032 474.992 718.032 353.5 802.532 353.5 802.532 443.272 815.532 450.76 815.532 353.5 835.032 353.5 835.032 275.5 796.032 275.5 796.032 301.5 783.032 301.5 783.032 275.5ZM809.032 314.5 809.032 288.5 822.032 288.5 822.032 340.5 698.532 340.5 698.532 288.5 711.532 288.5 711.532 314.5 750.532 314.5 750.532 288.5 770.032 288.5 770.032 314.5Z" fill="#FFFFFF"/><path d="M801.596 584.263 772.554 553.583 713.749 538.99 647.43 473.392 597.744 494.602 595.247 492.951 595.117 493.14 572.354 479.249 487.4 503.65 430.784 577.386 374.982 614.755 382.223 625.557 439.793 586.993 495.108 514.96 570.456 493.322 593.583 507.439 627.448 529.845 634.625 519.003 610.73 503.195 644.498 488.778 707.145 550.749 765.729 565.283 794.537 595.722 896.763 626.383 900.494 613.929 801.596 584.263Z" fill="#FFFFFF"/><path d="M628.527 580.227 560.518 613.656 490.533 613.656 490.533 626.656 563.541 626.656 628.404 594.773 690.466 626.656 737.532 626.656 737.532 613.656 693.605 613.656 628.527 580.227Z" fill="#FFFFFF"/></g></svg>