<svg width="624" height="624" xmlns="http://www.w3.org/2000/svg" xmlns:xlink="http://www.w3.org/1999/xlink" xml:space="preserve" overflow="hidden"><g transform="translate(-328 -48)"><path d="M485.573 599.616 485.3 599.616C477.676 599.616 465.059 609.223 464.5 616.269 464.066 623.664 468.254 630.556 475.017 633.578 477.525 634.116 480.083 634.388 482.648 634.391 486.257 634.448 489.844 633.799 493.204 632.48 499.279 629.734 502.715 623.216 501.55 616.653 499.925 610.022 493.243 599.85 485.573 599.616ZM488.238 620.481C486.462 621.131 484.578 621.44 482.687 621.391 481.466 621.39 480.246 621.292 479.04 621.099 478.383 620.196 477.898 619.18 477.611 618.102 479.573 615.858 482.002 614.069 484.728 612.863 486.595 614.715 488.01 616.972 488.862 619.461 488.707 619.83 488.497 620.174 488.238 620.481Z" fill="#FFFFFF"/><path d="M675.672 612.616 675.419 612.616C667.794 612.616 655.177 622.223 654.619 629.269 654.185 636.664 658.372 643.556 665.135 646.578 667.646 647.116 670.206 647.388 672.773 647.391 676.38 647.448 679.964 646.799 683.323 645.48 689.392 642.729 692.82 636.212 691.649 629.653 690.05 623.022 683.342 612.85 675.672 612.616ZM678.344 633.481C676.566 634.13 674.683 634.438 672.792 634.391 671.571 634.39 670.352 634.292 669.146 634.099 668.488 633.196 668 632.18 667.709 631.102 669.672 628.858 672.101 627.069 674.827 625.863 676.696 627.713 678.111 629.971 678.961 632.461 678.81 632.829 678.604 633.174 678.35 633.481Z" fill="#FFFFFF"/><path d="M775.037 599.616C772.352 599.568 769.704 600.241 767.367 601.566 760.867 605.388 753.633 617.965 755.817 622.542 758.222 626.281 762.424 628.471 766.867 628.3 768.335 628.317 769.791 628.041 771.151 627.488 776.787 625.195 781.881 621.745 786.1 617.361 789.721 613.305 791.093 606.636 787.245 603.496 783.685 600.951 779.413 599.593 775.037 599.616Z" fill="#FFFFFF"/><path d="M432.891 552.849C431.127 552.317 429.291 552.067 427.45 552.108 421.411 552.108 414.301 554.174 413.02 557.132 411.692 562.046 413.893 567.231 418.35 569.69 422.96 572.009 428.003 573.337 433.157 573.59L433.3 573.59C437.85 573.59 442.803 570.763 442.667 566.596 442.156 560.574 438.411 555.307 432.891 552.849Z" fill="#FFFFFF"/><path d="M853.2 215.05C853.196 213.909 852.893 212.788 852.323 211.8L809.448 137.856C808.736 136.582 807.61 135.589 806.257 135.042L685.539 87.455C683.612 86.697 681.439 86.9021 679.689 88.0075L543.664 174.1C542.426 174.881 541.491 176.058 541.011 177.441L434.873 480.127C434.267 481.914 434.479 483.878 435.452 485.495L478.195 559.479C478.964 560.806 480.177 561.819 481.621 562.339L604.25 606.61C606.654 607.492 609.351 606.882 611.14 605.05L851.347 359.09C852.534 357.873 853.197 356.24 853.194 354.54ZM552.529 183.883 683.829 100.76 797.371 145.5 797.371 277.951 561.942 519.022 449.271 478.352ZM488.258 550.911 455.647 494.596C455.602 494.511 455.647 494.465 455.725 494.505L559.231 531.867 591.841 588.182C591.893 588.267 591.841 588.306 591.763 588.273ZM607.818 589.833 571.75 527.57 802.5 291.269 838.549 353.533ZM810.378 278.854 810.378 165.526C810.378 165.397 810.437 165.383 810.502 165.526L840.194 216.812 840.194 330.1C840.194 330.23 840.135 330.25 840.07 330.1Z" fill="#FFFFFF"/><path d="M773.536 555.988C773.919 546.297 768.407 529.494 757.286 525.698 754.973 524.975 752.559 524.633 750.136 524.684 738.436 524.684 722.537 530.924 719.437 538.562 715.641 547.915 719.755 562.475 727.574 566.713 735.194 570.972 743.725 573.339 752.45 573.616 753.191 573.616 753.926 573.616 754.654 573.544 764.338 572.964 772.253 565.604 773.536 555.988ZM753.848 560.538C753.392 560.538 752.938 560.583 752.476 560.583 745.964 560.31 739.606 558.516 733.912 555.344 731.405 552.084 730.455 547.888 731.312 543.865 736.8 539.921 743.365 537.752 750.123 537.651 751.113 537.61 752.103 537.717 753.061 537.97 756.604 539.179 760.796 548.974 760.542 555.448 760.464 557.535 756.708 560.388 753.848 560.57Z" fill="#FFFFFF"/></g></svg>