<svg width="96" height="96" xmlns="http://www.w3.org/2000/svg" xmlns:xlink="http://www.w3.org/1999/xlink" xml:space="preserve" overflow="hidden"><g transform="translate(-180 -139)"><path d="M266.1 202.462 266.1 199.617C266.1 199.065 265.652 198.617 265.1 198.617 264.548 198.617 264.1 199.065 264.1 199.617L264.1 202.973 266.313 207.02 261.1 207.02C261.038 206.993 260.968 206.993 260.906 207.02L255.686 207.02 258.1 202.572 258.1 197C258.1 196.448 257.652 196 257.1 196 256.548 196 256.1 196.448 256.1 197L256.1 202.063 252.322 209.02 256 209.02 256 218.02 266 218.02 266 209.02 269.69 209.02ZM258 209.02 260 209.02 260 216.02 258 216.02ZM264 216.02 262 216.02 262 209.02 264 209.02Z" fill="#FFFFFF"/><path d="M245 184.294 245 179C245 178.448 244.552 178 244 178L244 178C243.448 178 243 178.448 243 179L243 184.413 246.232 198.013 239.082 198.013C239.03 197.99 238.97 197.99 238.918 198.013L231.771 198.013 235 184.53 235 179C235 178.448 234.552 178 234 178L234 178C233.448 178 233 178.448 233 179L233 184.3 229.235 200.017 233 200.017 233 218.022 245 218.022 245 200.017 248.768 200.017ZM235 200.017 238 200.017 238 216.022 235 216.022ZM243 216.022 240 216.022 240 200.017 243 200.017Z" fill="#FFFFFF"/><path d="M222 178C221.448 178 221 178.448 221 179L221 216.022 218 216.022 218 194 216 194 216 216.022 213 216.022 213 179C213 178.448 212.552 178 212 178 211.448 178 211 178.448 211 179L211 218.022 223 218.022 223 179C223 178.448 222.552 178 222 178Z" fill="#FFFFFF"/><path d="M199 196C198.448 196 198 196.448 198 197L198 216.022 196 216.022 196 207 194 207 194 216.022 192 216.022 192 199.617C192 199.065 191.552 198.617 191 198.617 190.448 198.617 190 199.065 190 199.617L190 218.022 200 218.022 200 197C200 196.448 199.552 196 199 196Z" fill="#FFFFFF"/><path d="M272.018 203 268.8 195.366 268.7 195.172C268.672 195.12 268.605 194.993 268.58 194.958 267.313 193.124 265.418 191.818 263.254 191.284 261.788 190.877 260.24 190.869 258.769 191.26 258.148 191.408 257.545 191.621 256.969 191.896L250.889 189.291 247.858 173.191C247.713 172.549 247.345 171.98 246.82 171.584 245.55 170.631 244.11 169.929 242.578 169.514 241.406 169.184 240.195 169.012 238.978 169.002 237.732 169.02 236.494 169.191 235.29 169.512 233.772 169.921 232.345 170.613 231.084 171.553 230.533 171.98 230.144 172.583 229.984 173.262L227.95 185.043C227.95 185.048 227.945 185.053 227.94 185.053 227.935 185.053 227.93 185.048 227.93 185.043L226 173.187C225.839 172.555 225.474 171.993 224.963 171.587 223.687 170.629 222.24 169.923 220.7 169.506 219.5 169.187 218.266 169.017 217.025 169 215.81 169.01 214.602 169.182 213.433 169.51 211.898 169.925 210.456 170.629 209.184 171.583 208.646 171.993 208.274 172.584 208.135 173.246L205.116 189.291 199.036 191.9C198.486 191.635 197.91 191.43 197.317 191.288 195.851 190.881 194.303 190.873 192.832 191.264 190.671 191.783 188.771 193.066 187.481 194.875 187.439 194.933 187.403 194.995 187.374 195.06 187.353 195.115 187.305 195.228 187.305 195.228L184.953 203.09C184.672 203.897 184.738 204.785 185.137 205.541 185.548 206.253 186.243 206.757 187.047 206.927 187.582 207.063 188.127 206.739 188.262 206.203 188.398 205.668 188.074 205.124 187.539 204.988 187.272 204.945 187.035 204.793 186.885 204.568 186.761 204.284 186.754 203.963 186.866 203.674L189.1 196.042C190.13 194.599 191.65 193.582 193.377 193.181 194.488 192.881 195.66 192.889 196.767 193.205 197.378 193.352 197.967 193.578 198.519 193.878L198.945 194.11 205.769 191.186 206.935 192.351C207.332 192.735 207.965 192.724 208.349 192.326 208.723 191.939 208.723 191.324 208.349 190.937L207.08 189.666 210.088 173.672C210.125 173.478 210.232 173.304 210.388 173.183 211.457 172.381 212.668 171.79 213.958 171.441 214.956 171.159 215.988 171.01 217.025 171 218.096 171.017 219.162 171.166 220.197 171.443 221.498 171.796 222.72 172.394 223.797 173.205 223.902 173.318 223.986 173.448 224.044 173.591L226.923 191.3C227.001 191.782 227.416 192.137 227.905 192.14L227.905 192.14C228.392 192.14 228.808 191.79 228.891 191.31L231.937 173.672C231.992 173.485 232.096 173.316 232.237 173.181 233.3 172.383 234.505 171.793 235.788 171.445 236.829 171.166 237.9 171.017 238.977 171 240.018 171.01 241.053 171.159 242.054 171.443 243.341 171.792 244.55 172.382 245.617 173.182 245.759 173.289 245.86 173.443 245.902 173.616L248.922 189.666 247.709 190.879C247.312 191.263 247.301 191.896 247.684 192.293 248.068 192.69 248.701 192.701 249.098 192.318 249.107 192.31 249.115 192.301 249.123 192.293L250.23 191.186 256.608 193.919C256.901 194.04 257.232 194.019 257.508 193.864 258.08 193.559 258.688 193.329 259.319 193.181 260.43 192.881 261.602 192.889 262.709 193.205 264.423 193.617 265.926 194.642 266.934 196.088L270.184 203.798C270.356 204.214 270.234 204.694 269.884 204.978 269.474 205.348 269.441 205.98 269.811 206.39 270.167 206.786 270.771 206.833 271.184 206.497 272.207 205.645 272.547 204.222 272.018 203Z" fill="#FFFFFF"/><path d="M217 167C219.761 167 222 164.761 222 162 222 159.239 219.761 157 217 157 214.239 157 212 159.239 212 162 212.003 164.76 214.24 166.997 217 167ZM217 159C218.657 159 220 160.343 220 162 220 163.657 218.657 165 217 165 215.343 165 214 163.657 214 162 214 160.343 215.343 159 217 159Z" fill="#FFFFFF"/><path d="M239 167C241.761 167 244 164.761 244 162 244 159.239 241.761 157 239 157 236.239 157 234 159.239 234 162 234.003 164.76 236.24 166.997 239 167ZM239 159C240.657 159 242 160.343 242 162 242 163.657 240.657 165 239 165 237.343 165 236 163.657 236 162 236 160.343 237.343 159 239 159Z" fill="#FFFFFF"/><path d="M195 190C197.209 190 199 188.209 199 186 199 183.791 197.209 182 195 182 192.791 182 191 183.791 191 186 191 188.209 192.791 190 195 190ZM195 184C196.105 184 197 184.895 197 186 197 187.105 196.105 188 195 188 193.895 188 193 187.105 193 186 193 184.895 193.895 184 195 184Z" fill="#FFFFFF"/><path d="M261 190C263.209 190 265 188.209 265 186 265 183.791 263.209 182 261 182 258.791 182 257 183.791 257 186 257 188.209 258.791 190 261 190ZM261 184C262.105 184 263 184.895 263 186 263 187.105 262.105 188 261 188 259.895 188 259 187.105 259 186 259 184.895 259.895 184 261 184Z" fill="#FFFFFF"/></g></svg>