<svg width="624" height="624" xmlns="http://www.w3.org/2000/svg" xmlns:xlink="http://www.w3.org/1999/xlink" xml:space="preserve" overflow="hidden"><g transform="translate(-328 -48)"><path d="M569.43 414.711C572.577 416.436 576.528 415.284 578.254 412.136 579.228 410.359 579.318 408.23 578.497 406.378 563.042 373.655 566.188 335.178 586.752 305.4 586.823 305.289 586.882 305.302 586.875 305.4 586.063 324.556 588.891 351.849 606.857 373.721 633.506 406.78 634.156 431.292 634.156 431.493 634.156 435.083 637.067 437.993 640.656 437.993 689.813 438.182 734.165 408.519 752.762 363.016 765.827 334.923 767.51 289.943 747.711 263.306 745.576 260.421 741.505 259.813 738.62 261.948 736.522 263.501 735.557 266.158 736.167 268.694 738.83 280.615 734.557 293.02 725.117 300.772 716.468 308.475 704.164 310.528 693.482 306.05 684.187 302.916 676.901 295.603 673.8 286.297 670.666 275.491 672.802 263.841 679.566 254.85 697.345 230.282 702.83 198.899 694.438 169.758 684.614 133.066 658.661 102.821 623.886 87.5395 620.596 86.1036 616.765 87.6067 615.329 90.8969 614.538 92.7106 614.616 94.7861 615.541 96.5355 644.381 151.077 592.973 199.814 576.541 213.438 550.021 235.317 532.945 258.125 527.791 270.943 501.004 335.69 540.654 398.948 569.43 414.711ZM539.854 275.851C544.255 264.859 560.199 243.78 584.828 223.454 601.474 209.648 650.153 163.473 634.104 107.833 634.104 107.742 634.104 107.709 634.202 107.755 657.669 122.834 674.671 146.121 681.886 173.066 689.431 198.438 684.681 225.878 669.049 247.238 659.939 259.607 657.128 275.52 661.45 290.262 665.701 303.334 675.813 313.673 688.789 318.211 703.917 324.487 721.301 321.566 733.548 310.691 739.383 305.743 743.93 299.453 746.802 292.361 746.84 292.263 746.899 292.263 746.925 292.361 751.916 314.28 749.792 337.219 740.86 357.848 725.093 396.616 688.298 422.743 646.5 424.85 641.897 402.874 631.729 382.446 616.971 365.525 590.724 333.571 602.508 285.517 602.631 285.035 603.523 281.558 601.428 278.016 597.951 277.124 595.676 276.541 593.264 277.229 591.64 278.926 552.867 319.271 552.724 361.371 559.172 389.172 559.172 389.315 559.172 389.335 559.062 389.23 532.001 357.984 524.595 314.267 539.854 275.851Z" fill="#FFFFFF"/><path d="M837.6 564.1 734.991 522.182 836.047 480.9C849.144 475.953 855.751 461.325 850.804 448.228 850.66 447.848 850.508 447.472 850.346 447.1L842.547 428.9C838.335 418.908 828.454 412.496 817.612 412.721 813.928 412.738 810.271 413.373 806.797 414.6L639.22 483.058 471.65 414.6C468.175 413.373 464.519 412.738 460.834 412.721 449.993 412.496 440.111 418.908 435.9 428.9L428.1 447.1C422.53 459.945 428.428 474.873 441.272 480.443 441.645 480.604 442.02 480.756 442.4 480.9L543.456 522.182 440.846 564.1C428.244 570.144 422.543 584.968 427.846 597.9L435.647 616.1C439.737 625.938 449.367 632.33 460.021 632.279 463.466 632.271 466.88 631.634 470.096 630.4L639.22 561.305 808.35 630.4C811.566 631.634 814.981 632.271 818.425 632.279 829.08 632.33 838.71 625.938 842.8 616.1L850.6 597.9C855.903 584.968 850.202 570.144 837.6 564.1ZM811.359 426.781C813.373 426.095 815.485 425.737 817.612 425.721 823.258 425.489 828.448 428.803 830.612 434.022L838.504 452.436C839.831 455.412 839.857 458.807 838.575 461.803 837.203 465.099 834.506 467.664 831.146 468.868L717.805 515.161 656.412 490.078ZM465.469 618.252C463.73 618.923 461.884 619.271 460.021 619.279 454.565 619.338 449.632 616.042 447.6 610.978L439.923 593.07C437.289 586.758 439.805 579.473 445.773 576.131L560.654 529.201 622.053 554.285ZM838.653 592.778 830.853 610.978C828.82 616.044 823.884 619.342 818.425 619.279 816.665 619.279 814.918 618.971 813.264 618.369L447.028 468.752C443.781 467.531 441.19 465.013 439.878 461.803 438.582 458.728 438.64 455.25 440.04 452.222L447.841 434.022C450.005 428.803 455.195 425.489 460.841 425.721 462.968 425.737 465.08 426.095 467.094 426.781L832.556 576.079C838.52 579.302 841.139 586.471 838.653 592.778Z" fill="#FFFFFF"/></g></svg>