<svg width="624" height="624" xmlns="http://www.w3.org/2000/svg" xmlns:xlink="http://www.w3.org/1999/xlink" xml:space="preserve" overflow="hidden"><g transform="translate(-328 -48)"><path d="M658.068 260.503 654.371 260.09C647.073 259.23 639.862 262.273 635.386 268.1 631.029 273.874 625.238 279.617 624.921 285.026 624.193 299.697 635.496 312.181 650.168 312.909 664.445 313.618 676.728 302.915 677.981 288.676 678.013 283.983 677.16 279.327 675.469 274.95 673.068 267.096 666.23 261.418 658.068 260.503Z" fill="#FFFFFF"/><path d="M621.999 170.728C621.836 171.25 621.711 171.782 621.625 172.322 621.386 178.835 624.547 185.006 629.973 188.617L630.468 196.796C630.848 203.122 626.954 233.885 629.221 243.103 631.304 251.554 638.796 257.557 647.498 257.746L653.998 257.746C664.445 257.981 673.175 230.348 673.682 219.911L674.744 198.008C674.105 196.446 673.429 194.963 672.715 193.557 682.618 180.785 682.833 156.231 678.104 135.972 672.934 113.841 663.105 100.738 651.136 100.025 635.323 99.195 625.948 119.267 621.609 130.428 613.38 135.653 614.669 151.118 614.85 152.912 615.293 159.457 617.795 165.693 621.999 170.728Z" fill="#FFFFFF"/><path d="M709.056 292.475C708.328 307.147 719.631 319.63 734.303 320.358 748.579 321.066 760.863 310.364 762.116 296.126 762.866 287.778 756.888 278.538 757.138 269.617 757.556 254.787 763.728 240.839 762.459 233.338 762.223 232.141 761.91 230.959 761.523 229.802L761.443 222.03C767.837 215.645 773.875 203.989 776.128 182.865 782.051 148.961 769.122 132.624 755.015 128.645 739.208 124.957 723.139 133.669 717.604 148.927L717.112 150.173 717.035 151.511C716.708 157.2 716.145 162.689 715.613 167.906 713.971 183.988 712.294 200.422 719.927 211.983L722.866 221.439C721.804 222.881 720.842 224.392 719.986 225.964L719.288 227.302C715.781 234.086 726.103 249.433 724.272 265.953 723.288 274.838 709.548 284.061 709.056 292.475Z" fill="#FFFFFF"/><path d="M564.579 404.921C578.89 410.655 595.182 415.067 611.249 420.38 647.726 432.441 685.261 429.14 688.433 437.663 691.605 446.187 681.56 457.817 693.719 462.575 705.879 467.333 718.567 466.275 710.637 471.033 702.707 475.791 682.618 478.435 683.146 500.639 683.675 522.842 683.172 532.359 669.414 526.015 655.657 519.671 627.866 516.499 620.615 493.238 616.068 478.655 619.066 473.866 621.936 472.323 622.744 471.867 623.03 470.841 622.573 470.032 622.436 469.789 622.24 469.583 622.003 469.435 610.474 461.912 571.806 438.088 555.188 445.511 554.091 445.439 552.991 445.376 551.871 445.376 539.073 445.03 526.778 450.372 518.297 459.964 512.996 459.634 507.726 460.983 503.236 463.819 501.98 460.625 499.664 457.961 496.676 456.273 493.781 454.823 490.417 454.625 487.372 455.725 486.297 452.849 485.434 449.898 484.788 446.895L483.603 441.797 478.505 440.62 478.21 440.555C478.298 438.242 477.445 435.992 475.847 434.317 476.784 431.561 477.797 428.727 478.483 426.815 481.962 417.084 483.879 411.726 477.297 408.138L475.585 407.308C474.389 405.453 472.756 402.526 471.464 400.213 464.948 388.538 456.919 374.154 444.938 371.893 445.599 367.511 443.883 363.108 440.432 360.328 432.753 354.54 422.572 360.458 409.646 371.109L408.568 372.177C403.778 377.86 399.241 384.578 401.932 391.307 402.09 391.705 402.272 392.094 402.475 392.471 400.191 395.21 399.157 398.78 399.624 402.316 401.134 408.854 404.413 414.85 409.102 419.649L413.021 423.981C424.973 436.568 439.342 446.613 455.269 453.513 455.767 453.684 456.177 453.738 456.654 453.881 456.903 455.083 457.286 456.253 457.798 457.369 463.216 466.517 471.071 473.979 480.484 478.921 475.65 486.781 473.471 492.295 477.155 497.877 479.327 501.014 482.859 502.935 486.672 503.052 486.477 504.084 486.354 505.127 486.304 506.177 485.034 532.239 528.558 571.138 567.774 597.536 586.644 610.229 608.549 617.675 631.245 619.113L644.777 619.978C660.671 620.031 678.97 620.013 694.994 619.633 727.435 618.86 730.899 616.177 740.014 612.185 747.028 609.096 753.361 604.648 758.647 599.099 781.991 575.656 801.487 527.174 795.067 491.208 802.816 485.128 807.444 475.905 807.686 466.059 807.527 462.033 806.163 458.149 803.77 454.908 805.588 453.726 807.233 452.3 808.661 450.67 814.593 443.044 816.505 433.034 813.801 423.759 813.05 418.562 812.351 414.529 811.788 411.281 800.998 401.265 765.943 356.417 727.965 351.562 689.988 346.708 648.212 338.893 644.414 341.815 640.616 344.735 621.482 343.567 616.807 343.567 605.173 346.379 593.9 350.521 583.212 355.91 576.931 359.416 561.156 356.714 548.143 376.836 549.478 388.076 555.433 398.252 564.579 404.921Z" fill="#FFFFFF"/><path d="M828.837 337.4C843.989 312.445 877.32 257.854 862.324 234.865 859.378 230.35 852.233 223.657 837.35 228.783 824.029 231.383 815.645 250.19 803.932 278.714 802.566 283.934 801.833 289.301 801.75 294.697 802.48 299.087 793.457 305.119 792.786 306.889 788.842 317.305 785.449 326.052 782.654 333.678 777 349.034 784.744 366.081 800.027 371.927L810.559 375.953C817.954 378.957 826.385 375.397 829.389 368.001 830.07 366.322 830.43 364.53 830.45 362.718 830.39 361.175 830.061 359.652 829.477 358.222 829.316 357.826 829.105 337.878 828.837 337.4Z" fill="#FFFFFF"/><path d="M530.573 231.151C524.586 242.013 518.327 259.031 524.269 271.757 525.734 274.909 527.908 277.68 530.622 279.852L544.455 298.073C546.087 301.407 540.473 310.777 541.021 316.591L541.063 317.032C542.493 331.887 555.694 342.769 570.549 341.339 574.07 341 577.49 339.973 580.615 338.317L582.364 337.391C593.469 331.512 599.059 318.758 595.856 306.608L585.748 292.925C584.038 285.576 588.985 279.019 587.537 273.18L586.174 267.77C580.375 245.155 576.251 234.703 570.632 230.627L567.686 225.439C565.239 188.026 561.121 150.886 540.456 143.562 524.469 137.892 509.637 153.934 504.762 159.204L502.564 161.58 502.531 164.819C502.512 166.745 502.337 168.962 502.154 171.389 500.953 187.339 498.806 215.831 530.573 231.151Z" fill="#FFFFFF"/></g></svg>