<svg width="96" height="96" xmlns="http://www.w3.org/2000/svg" xmlns:xlink="http://www.w3.org/1999/xlink" xml:space="preserve" overflow="hidden"><g transform="translate(-180 -312)"><path d="M212 376 202 376 202 366 212 366ZM204 374 210 374 210 368 204 368Z" fill="#FFFFFF"/><path d="M242 376 232 376 232 366 242 366ZM234 374 240 374 240 368 234 368Z" fill="#FFFFFF"/><path d="M260 369.418 261.089 369.418 261.177 369.402C267.95 368.187 272.5 361.685 272.5 353.228 272.5 344.214 263.164 324 259 324 254.836 324 245.5 344.214 245.5 353.228 245.5 361.675 250.049 368.177 256.821 369.406L258 369.406 258 388 250 388 250 369.667C249.287 369.152 248.618 368.579 248 367.954L248 388 228 388 228 366 216 366 216 388 198 388 198 360.452 222.019 336.433 243.048 357.462C242.814 356.374 242.656 355.272 242.574 354.162L222.019 333.6 196 359.624 196 359.624 192.366 363.258 189.8 360.655 222.025 328.433 242.792 349.2C242.91 348.462 243.065 347.669 243.251 346.832L222.025 325.6 186.986 360.644 192.355 366.1 196 362.452 196 388 184 388 184 390 272 390 272 388 260 388ZM257.092 367.418C251.351 366.33 247.5 360.639 247.5 353.228 247.5 344.321 256.639 326.538 258.963 325.997 261.363 326.539 270.5 344.324 270.5 353.228 270.5 360.648 266.65 366.339 260.909 367.422L260 367.422 260 360.832 267.363 353.468 265.949 352.054 260 358 260 341 258 341 258 352.565 252.9 347.465 251.49 348.883 258 355.393 258 367.422ZM226 388 218 388 218 368 226 368Z" fill="#FFFFFF"/></g></svg>