<svg width="624" height="624" xmlns="http://www.w3.org/2000/svg" xmlns:xlink="http://www.w3.org/1999/xlink" xml:space="preserve" overflow="hidden"><g transform="translate(-328 -48)"><path d="M830.561 153.892 766.406 153.892 708.854 107.15C697.993 98.3391 684.438 93.5209 670.453 93.5L595.189 93.5C573.343 93.5261 553.177 105.23 542.318 124.187L506.568 186.677 490.5 189.7C473.329 192.929 457.836 202.082 446.723 215.563L390.172 284.216C375.199 302.443 367.009 325.297 367 348.885L367 381.385C367.019 404.863 375.14 427.616 389.991 445.8L407.261 466.912 407.261 496.89C407.332 562.914 460.837 616.418 526.861 616.49L702.309 616.49C725.591 616.44 745.297 599.283 748.55 576.229L802.045 576.229C848.529 576.159 888.474 543.224 897.4 497.605L907.039 447.945C909.075 437.451 910.103 426.785 910.107 416.095L910.107 233.445C910.054 189.534 874.472 153.949 830.561 153.892ZM897.12 416.082C897.118 425.943 896.173 435.781 894.299 445.462L884.654 495.122C876.919 534.641 842.314 563.171 802.045 563.229L709.023 563.229C705.434 563.229 702.523 566.139 702.523 569.729 702.523 573.319 705.434 576.229 709.023 576.229L735.414 576.229C732.294 592.049 718.434 603.463 702.309 603.49L526.861 603.49C468.014 603.426 420.325 555.737 420.261 496.89L420.261 482.811 428.867 493.322C431.087 496.142 435.174 496.629 437.995 494.409 440.816 492.189 441.302 488.102 439.082 485.281 439.03 485.215 438.977 485.15 438.922 485.086L400.046 437.571C387.099 421.714 380.018 401.876 380 381.404L380 348.904C380.017 328.335 387.165 308.407 400.228 292.517L456.778 223.864C465.951 212.737 478.739 205.182 492.911 202.518L576.014 186.918C579.56 186.36 581.982 183.032 581.424 179.486 580.866 175.94 577.538 173.518 573.992 174.076 573.868 174.095 573.745 174.119 573.622 174.146L523.364 183.564 553.609 130.641C562.15 115.733 578.008 106.527 595.189 106.5L670.453 106.5C681.452 106.512 692.114 110.298 700.658 117.225L793.029 192.3C795.771 194.617 799.872 194.273 802.19 191.532 804.507 188.791 804.163 184.689 801.422 182.372 801.349 182.31 801.275 182.25 801.2 182.193L782.35 166.892 830.508 166.892C867.251 166.934 897.026 196.709 897.069 233.452Z" fill="#FFFFFF"/><path d="M729.635 302.299C729.655 300.11 729.923 297.929 730.434 295.799L691.24 295.799 691.24 308.799 730.434 308.799C729.923 306.67 729.654 304.489 729.635 302.299Z" fill="#FFFFFF"/><path d="M743.246 277.924 715.517 250.195 706.3 259.387 734.029 287.115C736.358 283.387 739.511 280.243 743.246 277.924Z" fill="#FFFFFF"/><path d="M764.93 274.304 764.93 235.109 751.93 235.109 751.93 274.304C756.198 273.238 760.662 273.238 764.93 274.304Z" fill="#FFFFFF"/><path d="M782.805 287.115 810.541 259.387 801.349 250.195 773.614 277.924C777.339 280.246 780.483 283.39 782.805 287.115Z" fill="#FFFFFF"/><path d="M764.93 330.295C760.662 331.361 756.198 331.361 751.93 330.295L751.93 369.49 764.93 369.49Z" fill="#FFFFFF"/><path d="M787.225 302.299C787.209 304.489 786.94 306.671 786.426 308.799L825.62 308.799 825.62 295.799 786.426 295.799C786.94 297.928 787.208 300.11 787.225 302.299Z" fill="#FFFFFF"/><path d="M734.055 317.483 706.3 345.219 715.491 354.41 743.22 326.674C739.504 324.35 736.369 321.206 734.055 317.483Z" fill="#FFFFFF"/><path d="M773.614 326.674 801.349 354.41 810.541 345.219 782.805 317.483C780.483 321.209 777.339 324.353 773.614 326.674Z" fill="#FFFFFF"/><path d="M791.703 399.839C788.749 397.794 784.697 398.532 782.652 401.486 780.608 404.441 781.346 408.493 784.3 410.538L792.314 416.069 773.302 429.921C771.112 429.549 768.875 429.549 766.685 429.921 741.5 433.475 715.916 433.109 690.843 428.835 670.245 425.865 658.681 438.124 656.354 451.585 655.382 457.546 656.164 463.661 658.603 469.187L627.37 508.2C625.127 511.003 625.581 515.095 628.385 517.339 631.188 519.583 635.28 519.128 637.523 516.325L666.715 479.827C669.981 482.427 673.821 484.209 677.914 485.027 694.198 488.154 710.734 489.777 727.314 489.877 740.621 490.62 753.924 488.359 766.236 483.259 766.495 483.779 766.823 484.26 767.211 484.689L793.693 510.449C796.292 512.925 800.406 512.825 802.882 510.226 805.323 507.664 805.266 503.62 802.754 501.128L776.279 475.368C775.883 475.04 775.446 474.765 774.979 474.549 780.419 465.566 787.375 449.089 783.533 438.539L803.67 423.895 815.428 432.007C818.369 434.066 822.422 433.352 824.481 430.411 826.541 427.471 825.827 423.418 822.886 421.359 822.861 421.342 822.837 421.325 822.812 421.308ZM680.482 472.281C672.276 470.258 667.232 462.001 669.178 453.775 670.292 446.158 677.139 440.72 684.811 441.36 686.214 441.365 687.616 441.471 689.004 441.679 715.355 446.142 742.239 446.501 768.7 442.745 769.556 442.551 770.444 442.551 771.3 442.745 773.341 445.228 769.662 459.977 762.447 470.136 757.176 477.474 718.364 479.912 680.482 472.281Z" fill="#FFFFFF"/><path d="M634.358 383.465C635.046 386.403 637.665 388.481 640.682 388.483 641.184 388.486 641.684 388.426 642.171 388.307 645.662 387.49 647.832 384 647.02 380.508L615.645 246.802C614.857 243.3 611.379 241.1 607.876 241.888 604.374 242.676 602.173 246.154 602.962 249.656 602.97 249.695 602.979 249.734 602.989 249.773L618.459 315.703C616.658 314.744 614.506 314.708 612.674 315.605L545.815 349.229 548.077 306.056C559.195 302.616 565.419 290.814 561.979 279.696 558.538 268.578 546.736 262.354 535.618 265.794 524.5 269.235 518.276 281.037 521.716 292.155 523.713 298.607 528.681 303.711 535.077 305.881L532.678 351.68 481.263 316.066C478.312 314.022 474.263 314.757 472.219 317.708 470.174 320.659 470.909 324.708 473.86 326.753L531.879 366.936 530.28 397.421 487.055 513.4C485.799 516.764 487.507 520.509 490.87 521.766 494.234 523.022 497.98 521.314 499.236 517.95L538.236 413.209 572.686 466.86 559.939 524.06C559.161 527.563 561.37 531.035 564.873 531.814 565.338 531.92 565.814 531.973 566.29 531.971 569.331 531.968 571.964 529.856 572.628 526.888L585.966 467.016C586.344 465.32 586.028 463.544 585.088 462.083L543.312 397.005 545.035 364.18 618.485 327.214C619.359 326.764 620.113 326.113 620.688 325.316ZM541.85 277.944C546.312 277.944 549.93 281.561 549.93 286.023 549.93 290.486 546.312 294.103 541.85 294.103 537.388 294.103 533.771 290.486 533.771 286.023 533.778 281.564 537.391 277.951 541.85 277.944Z" fill="#FFFFFF"/></g></svg>