<svg width="624" height="624" xmlns="http://www.w3.org/2000/svg" xmlns:xlink="http://www.w3.org/1999/xlink" xml:space="preserve" overflow="hidden"><g transform="translate(-328 -48)"><path d="M900 617.908C893.613 616.94 887.369 615.19 881.41 612.697 858.135 603.454 832.21 603.454 808.935 612.697 788.66 620.788 766.051 620.788 745.776 612.697 734.329 607.837 721.977 605.474 709.545 605.765 697.109 605.474 684.754 607.837 673.303 612.697 663.33 616.963 652.556 619.033 641.713 618.765 630.866 619.033 620.089 616.963 610.114 612.697 598.659 607.837 586.3 605.474 573.861 605.765 561.425 605.474 549.07 607.837 537.619 612.697 527.646 616.963 516.872 619.033 506.029 618.765 495.178 619.033 484.396 616.964 474.417 612.697 462.956 607.837 450.592 605.474 438.147 605.765 425.705 605.475 413.344 607.837 401.886 612.693 394.914 615.652 387.536 617.546 380 618.31L380 631.344C389.133 630.584 398.089 628.386 406.536 624.832 416.516 620.565 427.297 618.495 438.148 618.764 448.999 618.495 459.782 620.565 469.762 624.835 481.222 629.692 493.584 632.054 506.027 631.765 518.464 632.056 530.819 629.693 542.271 624.833 552.244 620.567 563.018 618.497 573.861 618.765 584.708 618.497 595.487 620.566 605.463 624.833 616.917 629.692 629.275 632.056 641.714 631.765 654.15 632.056 666.505 629.692 677.956 624.833 698.235 616.742 720.846 616.742 741.124 624.833 764.396 634.076 790.318 634.076 813.59 624.833 833.868 616.742 856.479 616.742 876.758 624.833 884.186 627.951 892.006 630.037 900 631.034Z" fill="#FFFFFF"/><path d="M900 569.158C893.613 568.19 887.369 566.44 881.41 563.947 858.135 554.704 832.21 554.704 808.935 563.947 788.66 572.038 766.051 572.038 745.776 563.947 734.329 559.087 721.977 556.724 709.545 557.015 697.109 556.724 684.754 559.087 673.303 563.947 663.33 568.213 652.556 570.283 641.713 570.015 630.866 570.283 620.089 568.213 610.114 563.947 598.659 559.087 586.3 556.724 573.861 557.015 561.425 556.724 549.07 559.087 537.619 563.947 527.646 568.213 516.872 570.283 506.029 570.015 495.178 570.283 484.396 568.214 474.417 563.947 462.956 559.087 450.592 556.724 438.147 557.015 425.705 556.725 413.344 559.087 401.886 563.943 394.914 566.902 387.536 568.796 380 569.56L380 582.594C389.133 581.834 398.089 579.636 406.536 576.082 416.516 571.815 427.297 569.745 438.148 570.014 448.999 569.745 459.782 571.815 469.762 576.085 481.222 580.942 493.584 583.304 506.027 583.015 518.464 583.306 530.819 580.943 542.271 576.083 552.244 571.817 563.018 569.747 573.861 570.015 584.708 569.747 595.487 571.816 605.463 576.083 616.917 580.942 629.275 583.306 641.714 583.015 654.15 583.306 666.505 580.942 677.956 576.083 698.235 567.992 720.846 567.992 741.124 576.083 764.396 585.326 790.318 585.326 813.59 576.083 833.868 567.992 856.479 567.992 876.758 576.083 884.186 579.201 892.006 581.287 900 582.284Z" fill="#FFFFFF"/><path d="M900 520.81C892.474 520.045 885.105 518.153 878.142 515.197 854.867 505.955 828.941 505.955 805.667 515.197 785.391 523.288 762.783 523.288 742.508 515.197 731.06 510.338 718.708 507.974 706.276 508.265 693.84 507.974 681.485 510.337 670.034 515.197 660.062 519.463 649.287 521.533 638.444 521.265 627.597 521.533 616.818 519.464 606.842 515.197 595.388 510.338 583.03 507.974 570.592 508.265 558.156 507.974 545.801 510.337 534.35 515.197 524.377 519.463 513.603 521.533 502.76 521.265 491.909 521.533 481.128 519.464 471.149 515.197 459.688 510.337 447.324 507.974 434.879 508.265 422.437 507.975 410.076 510.337 398.618 515.193 392.65 517.69 386.397 519.442 380 520.41L380 533.535C388.003 532.54 395.833 530.453 403.27 527.333 413.249 523.066 424.031 520.997 434.881 521.265 445.733 520.996 456.515 523.066 466.495 527.337 477.954 532.192 490.315 534.554 502.757 534.265 515.194 534.556 527.55 532.193 539.002 527.333 548.975 523.067 559.749 520.997 570.592 521.265 581.439 520.997 592.215 523.067 602.191 527.333 613.646 532.192 626.005 534.556 638.445 534.265 650.88 534.556 663.236 532.193 674.687 527.333 694.965 519.242 717.576 519.242 737.856 527.333 761.126 536.576 787.049 536.576 810.32 527.333 830.599 519.242 853.21 519.242 873.489 527.333 881.928 530.886 890.875 533.085 900 533.846Z" fill="#FFFFFF"/><path d="M822.867 459.991C809.643 446.145 794.283 434.511 777.372 425.535 761.719 417.171 744.896 411.211 727.469 407.855 726.949 379.601 724.077 276.836 709.164 206.858 706.856 197.069 703.995 187.42 700.594 177.955 700.57 177.89 700.607 177.86 700.674 177.88 707.34 179.752 713.603 182.839 719.149 186.984 724.939 191.823 730.341 197.107 735.307 202.789 748.439 219.029 759.887 236.56 769.476 255.114 771.121 258.305 775.041 259.557 778.232 257.912 780.249 256.872 781.577 254.857 781.737 252.594 783.176 231.335 782.282 209.982 779.072 188.917 777.83 182.281 775.537 175.884 772.28 169.97 772.231 169.882 772.267 169.84 772.361 169.881 789.423 177.15 806.018 185.472 822.049 194.799 825.136 196.632 829.123 195.615 830.956 192.529 832.104 190.596 832.172 188.208 831.136 186.213 819.288 163.556 804.949 142.291 788.383 122.815 778.009 110.768 763.549 102.982 747.781 100.954 747.665 100.941 747.66 100.889 747.764 100.833 765.729 91.5208 783.341 84.7126 783.597 84.6178 786.948 83.3305 788.621 79.5704 787.334 76.2192 786.543 74.1604 784.762 72.6429 782.604 72.1891 760.574 67.6244 738.091 65.6202 715.601 66.2162 691.876 66.8136 671.208 82.5567 664.331 105.27 662.602 111.395 662.082 117.797 662.799 124.12 662.807 124.204 662.762 124.229 662.697 124.175 655.872 118.344 647.918 113.985 639.331 111.37 613.318 103.579 585.263 113.647 570.141 136.2 556.439 157.512 545.426 180.436 537.352 204.45 536.219 207.857 538.062 211.537 541.468 212.67 543.475 213.337 545.68 212.987 547.381 211.73 565.485 198.535 584.699 186.934 604.807 177.059 604.907 177.013 604.944 177.052 604.889 177.147 599.111 187.615 596.559 199.559 597.555 211.475 599.882 234.552 604.822 257.29 612.281 279.252 613.18 281.88 615.65 283.644 618.427 283.645L618.737 283.639C621.626 283.499 624.076 281.471 624.752 278.659 630.156 256.248 637.888 234.463 647.822 213.659 651.047 207.435 654.64 201.41 658.583 195.615 661.754 191.413 665.44 187.626 669.556 184.344 669.594 184.313 669.635 184.315 669.652 184.361 672.708 192.676 675.154 201.204 676.969 209.875 688.582 265.76 688.86 331.289 677.952 404.607 662.175 405.667 646.49 407.811 631.009 411.025 611.986 415.563 593.335 421.538 575.216 428.9 568.176 426.949 560.905 425.957 553.599 425.951 543.158 386.742 538.819 346.158 540.735 305.628 542.922 306.766 544.917 308.242 546.645 310.002 549.204 312.947 551.588 316.039 553.783 319.264 560.561 329.988 566.209 341.385 570.636 353.274 571.438 355.44 573.503 356.878 575.812 356.88 575.943 356.88 576.082 356.874 576.216 356.864 578.667 356.687 580.706 354.912 581.221 352.509 583.923 339.637 585.156 326.5 584.896 313.35 584.626 308.163 583.302 303.084 581.005 298.425 580.964 298.344 581 298.306 581.084 298.336 591.018 302.182 600.675 306.71 609.985 311.887 612.639 313.393 616.011 312.463 617.517 309.809 618.404 308.245 618.475 306.346 617.707 304.721 611.527 291.751 603.767 279.596 594.605 268.529 584.166 256.408 567.049 252.498 552.383 258.887 548.785 260.426 545.467 262.551 542.565 265.177 542.517 265.22 542.471 265.202 542.462 265.138 542.137 262.735 541.487 260.388 540.529 258.161 534.89 245.266 521.612 237.446 507.601 238.769 494.891 239.957 482.362 242.609 470.26 246.671 467.37 247.65 465.821 250.787 466.8 253.677 467.402 255.455 468.866 256.805 470.686 257.262 470.809 257.294 477.832 259.076 486.215 261.928 486.304 261.959 486.313 262.013 486.225 262.05 479.479 265.014 473.692 269.8 469.515 275.87 461.517 287.941 454.892 300.866 449.764 314.407 448.691 317.264 450.137 320.449 452.993 321.522 454.782 322.194 456.79 321.894 458.305 320.729 458.447 320.622 468.445 312.967 479.709 306.203 479.782 306.159 479.825 306.19 479.805 306.274 479.266 308.465 478.916 310.699 478.76 312.95 478.376 325.036 479.32 337.128 481.576 349.008 482.045 351.439 484.074 353.262 486.542 353.467 489.02 353.709 491.344 352.233 492.179 349.887 496.203 339.084 501.315 328.717 507.436 318.947 509.755 315.543 512.336 312.325 515.154 309.321 516.239 308.258 517.463 307.346 518.791 306.609 517.111 347.085 518.21 387.628 522.082 427.952 516.882 428.692 511.435 429.583 505.45 430.851 470.529 438.254 452.374 452.199 442.617 465.409 439.284 469.809 436.926 474.868 435.699 480.25L449.466 480.25C450.355 477.849 451.498 475.55 452.877 473.392 458.866 464.391 474.739 450.649 508.146 443.568 521.535 440.594 535.197 439.013 548.912 438.852 554.747 438.799 560.576 439.238 566.337 440.164 567.99 440.448 570.321 440.902 572.416 441.411 574.16 441.834 575.744 442.317 576.617 442.586 586.894 446.172 596.154 452.184 603.612 460.112 605.896 462.883 609.992 463.277 612.762 460.994 615.533 458.71 615.927 454.614 613.644 451.844 613.578 451.763 613.509 451.684 613.438 451.606 607.648 445.279 600.835 439.969 593.284 435.899 606.469 430.959 619.967 426.898 633.689 423.744 653.235 419.625 673.132 417.389 693.105 417.07 697.464 417.07 701.311 417.238 704.54 417.569 727.853 419.482 750.538 426.09 771.23 436.996 786.895 445.279 801.119 456.037 813.355 468.853 815.961 471.648 819.544 475.819 823.255 480.249L840.129 480.249C834.26 473.084 827.297 464.746 822.867 459.991ZM507.286 301.56 507.286 301.563C504.042 304.994 501.074 308.677 498.409 312.576 495.255 317.208 492.455 322.07 490.03 327.122 489.972 327.239 489.918 327.228 489.909 327.098 489.559 322.655 489.518 318.193 489.783 313.744 489.826 306.885 493.262 300.492 498.958 296.672 501.529 295.029 502.281 291.613 500.638 289.041 499.226 286.833 496.456 285.92 494.007 286.857 492.629 287.388 491.243 287.936 489.834 288.521 482.258 291.869 474.979 295.852 468.075 300.426 467.968 300.495 467.927 300.459 467.983 300.345 470.985 294.072 474.491 288.054 478.467 282.349 484.22 272.963 495.413 268.414 506.082 271.126 507.455 271.507 508.773 272.062 510.005 272.776 512.675 274.255 516.037 273.288 517.515 270.618 518.943 268.039 518.094 264.792 515.585 263.242 513.997 262.274 512.363 261.303 510.666 260.348 504.715 257.15 498.511 254.45 492.116 252.272 491.999 252.231 492.003 252.176 492.124 252.149 497.4 250.946 502.762 250.162 508.161 249.804 517.591 248.679 526.639 253.882 530.41 262.598 532.266 268.732 532.126 275.297 530.01 281.346 529.137 284.27 530.799 287.348 533.723 288.221 536.167 288.951 538.793 287.913 540.077 285.71 543.865 278.705 549.592 272.942 556.573 269.11 566.945 264.542 579.085 267.327 586.429 275.96 591.258 281.523 595.557 287.526 599.268 293.889 599.328 293.988 599.292 294.028 599.187 293.979 591.019 290.032 582.504 286.849 573.749 284.47 569.614 283.458 565.206 282.547 560.651 281.766 557.803 281.283 555.078 283.124 554.462 285.946 553.828 288.807 555.494 291.677 558.293 292.544 567.64 295.51 573.959 304.225 573.87 314.031 574.13 319.744 573.94 325.467 573.303 331.15 573.29 331.275 573.238 331.285 573.182 331.172 570.203 324.754 566.701 318.592 562.711 312.749 560.289 309.206 557.659 305.81 554.834 302.58 548.766 296.425 540.758 292.555 532.165 291.626 531.87 291.626 531.58 291.636 531.292 291.654 522.427 292.26 513.999 295.737 507.286 301.56ZM529.074 321.729C529.435 321.729 529.326 341.064 530.904 360.924 532.989 382.89 536.785 404.659 542.258 426.034 539.389 426.149 536.31 426.365 533.059 426.656 531.659 410.731 528.885 374.893 528.808 340.63 528.794 334.228 528.679 321.729 529.074 321.729ZM647.976 188.099C643.688 194.388 639.781 200.927 636.276 207.684 628.861 222.3 622.837 237.581 618.285 253.325 618.248 253.445 618.195 253.444 618.163 253.325 614.299 239.394 611.747 225.132 610.539 210.725 608.158 192.056 618.172 174.001 635.27 166.135 635.429 166.078 635.79 165.935 635.939 165.868 639.215 164.401 640.682 160.555 639.214 157.279 637.88 154.302 634.546 152.774 631.42 153.709 623.6 156.036 616.052 158.565 608.987 161.228 590.807 168.773 573.439 178.144 557.151 189.196 557.053 189.261 557.014 189.227 557.058 189.12 563.329 173.197 571.266 157.981 580.737 143.727 592.712 125.653 615.137 117.59 635.879 123.902 652.399 128.452 666.548 145.83 670.49 151.048 672.651 153.915 676.726 154.487 679.593 152.326 681.998 150.513 682.842 147.285 681.633 144.526 679.472 139.581 672.733 122.407 676.774 109.04 682.015 91.4358 698.138 79.3195 716.505 79.1824 730.347 78.5759 744.214 79.2815 757.923 81.2897 758.046 81.306 758.053 81.3548 757.941 81.4093 743.446 87.7896 729.586 95.5229 716.543 104.506 713.769 106.541 711.107 108.591 708.526 110.632 705.712 112.861 705.237 116.949 707.465 119.763 709.633 122.501 713.577 123.037 716.397 120.976 718.656 119.272 721.125 117.867 723.742 116.792 732.842 113.187 756.437 107.426 778.846 131.643 789.874 144.216 799.698 157.795 808.189 172.203 808.254 172.312 808.219 172.35 808.106 172.29 791.664 163.439 774.422 156.161 756.61 150.556 754.024 149.832 751.475 149.159 748.945 148.515 745.469 147.619 741.925 149.711 741.029 153.187 740.251 156.202 741.722 159.344 744.534 160.68 756.434 166.682 764.589 178.187 766.313 191.403 768.393 203.563 769.412 215.881 769.358 228.217 769.358 228.347 769.308 228.362 769.24 228.25 762.182 216.156 754.054 204.718 744.953 194.075 739.512 187.867 733.592 182.096 727.246 176.816 714.929 167.687 700.061 162.649 684.732 162.41 672.979 163.01 655.114 178.025 647.976 188.099ZM693.105 404.07C692.473 404.07 691.784 404.098 691.137 404.104 701.904 330.244 701.49 263.995 689.696 207.227 687.499 196.895 684.589 186.727 680.986 176.797 682.442 176.01 684.044 175.531 685.693 175.387L686.298 176.86C690.437 187.556 693.838 198.523 696.476 209.685 710.726 276.563 713.796 374.634 714.425 405.656 711.515 405.261 708.655 404.919 705.868 404.633 701.626 404.233 697.366 404.045 693.105 404.07Z" fill="#FFFFFF"/></g></svg>