<svg width="96" height="96" xmlns="http://www.w3.org/2000/svg" xmlns:xlink="http://www.w3.org/1999/xlink" xml:space="preserve" overflow="hidden"><g transform="translate(-592 -312)"><path d="M673.58 358.208 636.912 332.6 612.312 321.9 614.312 326.3C618.212 336.153 632.692 349.293 646.059 358L615.212 358C608.643 358.008 603.32 363.331 603.312 369.9L603.312 370.1C603.32 376.669 608.643 381.992 615.212 382L671.412 382C677.981 381.992 683.304 376.669 683.312 370.1L683.312 369.9C683.302 364.169 679.214 359.257 673.58 358.208ZM616.268 325.8 635.931 334.352 669.652 357.9 649.64 357.9C636.41 349.757 620.438 335.913 616.268 325.8ZM681.312 370.1C681.306 375.565 676.877 379.994 671.412 380L660.312 380 660.312 376C660.312 375.448 659.864 375 659.312 375 658.76 375 658.312 375.448 658.312 376L658.312 380 652.312 380 652.312 376C652.312 375.448 651.864 375 651.312 375 650.76 375 650.312 375.448 650.312 376L650.312 380 644.312 380 644.312 376C644.312 375.448 643.864 375 643.312 375 642.76 375 642.312 375.448 642.312 376L642.312 380 636.312 380 636.312 376C636.312 375.448 635.864 375 635.312 375 634.76 375 634.312 375.448 634.312 376L634.312 380 628.312 380 628.312 376C628.312 375.448 627.864 375 627.312 375 626.76 375 626.312 375.448 626.312 376L626.312 380 615.212 380C609.747 379.994 605.318 375.565 605.312 370.1L605.312 369.9C605.318 364.435 609.747 360.006 615.212 360L671.412 360C676.877 360.006 681.306 364.435 681.312 369.9Z" fill="#FFFFFF"/><path d="M672.312 366C670.103 366 668.312 367.791 668.312 370 668.312 372.209 670.103 374 672.312 374 674.521 374 676.312 372.209 676.312 370 676.312 367.791 674.521 366 672.312 366ZM672.312 372C671.207 372 670.312 371.105 670.312 370 670.312 368.895 671.207 368 672.312 368 673.417 368 674.312 368.895 674.312 370 674.312 371.105 673.417 372 672.312 372Z" fill="#FFFFFF"/></g></svg>