<svg width="96" height="96" xmlns="http://www.w3.org/2000/svg" xmlns:xlink="http://www.w3.org/1999/xlink" xml:space="preserve" overflow="hidden"><g transform="translate(-304 -264)"><path d="M344.91 298 327.91 298 327.91 310 344.91 310ZM342.91 308 329.91 308 329.91 300 342.91 300Z" fill="#FFFFFF"/><path d="M348.91 334 365.91 334 365.91 322 348.91 322ZM350.91 324 363.91 324 363.91 332 350.91 332Z" fill="#FFFFFF"/><path d="M327.91 291 365.91 291 365.91 293 327.91 293Z" fill="#FFFFFF"/><path d="M327.91 315 365.91 315 365.91 317 327.91 317Z" fill="#FFFFFF"/><path d="M348.91 299 365.91 299 365.91 301 348.91 301Z" fill="#FFFFFF"/><path d="M348.91 307 365.91 307 365.91 309 348.91 309Z" fill="#FFFFFF"/><path d="M327.91 323 344.91 323 344.91 325 327.91 325Z" fill="#FFFFFF"/><path d="M327.91 331 344.91 331 344.91 333 327.91 333Z" fill="#FFFFFF"/><path d="M373.91 286 373.91 280 319.91 280 319.91 338C319.914 341.864 323.046 344.996 326.91 345L377.91 345C381.222 344.996 383.906 342.312 383.91 339L383.91 286ZM321.91 338 321.91 282 371.91 282 371.91 339C371.91 340.478 372.459 341.903 373.45 343L326.91 343C324.15 342.997 321.913 340.76 321.91 338ZM381.91 339C381.91 341.209 380.119 343 377.91 343 375.701 343 373.91 341.209 373.91 339L373.91 288 381.91 288Z" fill="#FFFFFF"/></g></svg>