<svg width="624" height="624" xmlns="http://www.w3.org/2000/svg" xmlns:xlink="http://www.w3.org/1999/xlink" xml:space="preserve" overflow="hidden"><g transform="translate(-328 -48)"><path d="M403.543 407.664 459.157 430.85C466.957 434.1 473.314 426.677 473.34 414.255L473.411 374.021C473.411 361.605 467.12 348.898 459.307 345.648L403.693 322.495C395.893 319.245 389.529 326.668 389.509 339.09L389.438 379.324C389.419 391.707 395.73 404.414 403.543 407.664Z" fill="#FFFFFF"/><path d="M567.161 475.791 622.775 498.944C623.91 499.437 625.132 499.697 626.37 499.711 632.447 499.711 636.938 492.795 636.958 482.349L637.029 442.115C637.029 429.699 630.738 416.992 622.924 413.742L567.317 390.589C566.182 390.097 564.959 389.836 563.723 389.822 557.645 389.822 553.147 396.738 553.128 407.184L553.056 447.419C553.036 459.833 559.348 472.541 567.161 475.791ZM579.102 423.661 609.82 436.447C610.591 438.222 611.002 440.133 611.029 442.069L610.99 465.879 580.271 453.086C579.497 451.311 579.084 449.4 579.056 447.464Z" fill="#FFFFFF"/><path d="M349.19 250.611C348.448 250.899 347.734 251.257 347.058 251.677 343.436 254.088 341.26 258.15 341.26 262.5L341 408.626C340.99 413.884 344.148 418.63 349.001 420.652L362.203 426.144 370.614 443.044C372.009 445.849 374.371 448.056 377.263 449.258L460.372 483.864C476.655 490.656 492.918 484.254 501.816 467.614L510.826 450.753C511.463 451.885 512.004 453.068 512.444 454.289L523.695 484.936C530.67 503.923 542.376 518.021 555.812 523.618L638.927 558.25C644.133 560.417 650.143 558.981 653.806 554.695L660.046 547.395 670.992 548.448 672.5 548.5 674.034 548.35C675.185 548.234 676.316 547.962 677.395 547.544L761.895 513.186C765.842 511.586 768.756 508.155 769.695 504.001L789.338 416.784 860.539 387.3C861.244 386.989 862.06 387.071 862.69 387.515 863.345 387.923 863.733 388.648 863.711 389.419L863.711 394.047C863.712 395.043 863.067 395.924 862.118 396.225 850.469 400.015 842.592 410.884 842.618 423.135L842.618 430.129C842.642 445.751 855.326 458.397 870.949 458.374 874.439 458.368 877.897 457.717 881.15 456.453L887.455 453.996C918.626 441.982 939.137 411.964 939 378.557L939 363.757C938.996 331.492 912.836 305.338 880.57 305.343 873.176 305.343 865.849 306.748 858.979 309.482L675.912 382.347 466.612 295.201 470.513 280.401 542.013 250.774C543.183 250.289 544.525 250.846 545.01 252.017 545.125 252.294 545.185 252.592 545.185 252.893L545.185 257.521C545.186 258.517 544.541 259.398 543.592 259.698 531.943 263.489 524.066 274.358 524.092 286.608L524.092 293.602C524.086 309.218 536.739 321.883 552.355 321.89 555.877 321.891 559.369 321.235 562.65 319.953L568.955 317.496C600.126 305.482 620.636 275.464 620.5 242.057L620.5 227.257C620.497 194.992 594.339 168.837 562.073 168.84 554.652 168.841 547.299 170.255 540.407 173.008ZM550.092 197.143C566.724 190.519 585.577 198.633 592.2 215.266 593.719 219.081 594.5 223.15 594.5 227.257L594.5 242.057C594.594 264.735 580.674 285.114 559.517 293.277L553.206 295.734C552.034 296.197 550.708 295.623 550.245 294.451 550.138 294.181 550.084 293.893 550.086 293.602L550.086 286.608C550.083 285.617 550.721 284.737 551.665 284.431 563.333 280.657 571.23 269.783 571.211 257.521L571.211 252.893C571.214 237.27 558.552 224.602 542.93 224.598 539.214 224.597 535.533 225.328 532.1 226.75L454.646 258.847C450.903 260.399 448.099 263.608 447.06 267.524L442.4 285.12 388.359 262.617ZM659.266 521.2 655.808 520.869C651.586 520.46 647.43 522.136 644.674 525.36L640.188 530.619 565.802 499.633C560.895 497.586 553.31 490.169 548.103 475.992L536.852 445.345C531.794 431.565 521.901 422.536 511.079 421.783 510.578 421.75 510.091 421.73 509.597 421.73 501.315 421.883 493.824 426.684 490.227 434.146L478.884 455.381C475.362 461.972 472.235 460.672 470.37 459.931L391.72 427.191 383.322 410.225C381.931 407.419 379.571 405.212 376.678 404.012L367 399.988 367.228 282 659.5 403.667ZM913 378.557C913.094 401.235 899.174 421.614 878.017 429.777L871.706 432.234C870.534 432.697 869.208 432.123 868.745 430.951 868.638 430.681 868.584 430.393 868.586 430.103L868.586 423.108C868.582 422.117 869.221 421.237 870.165 420.931 881.833 417.157 889.73 406.283 889.711 394.021L889.711 389.393C889.714 373.77 877.052 361.102 861.43 361.098 857.714 361.097 854.033 361.828 850.6 363.25L773.146 395.347C769.247 396.967 766.377 400.379 765.45 404.499L745.807 491.657 685.5 516.182 685.5 406.514 868.592 333.642C885.224 327.019 904.077 335.133 910.7 351.766 912.219 355.581 913 359.65 913 363.757Z" fill="#FFFFFF"/></g></svg>