<svg width="96" height="96" xmlns="http://www.w3.org/2000/svg" xmlns:xlink="http://www.w3.org/1999/xlink" xml:space="preserve" overflow="hidden"><g transform="translate(-256 -412)"><path d="M312.969 436.233C312.541 435.552 311.826 435.104 311.027 435.016 310.265 434.927 309.504 435.191 308.96 435.732L272.588 470.832 267.067 476.121 273.458 487.196 280.776 484.917 290.527 482.151 290.465 482.208 294.949 487.153 309.076 483.253 310.376 476.57 310.276 476.551 329.368 471.136 329.48 471.097C330.246 470.771 330.833 470.128 331.085 469.334 331.318 468.622 331.228 467.843 330.838 467.203ZM269.584 476.477 273.084 473.127 278.996 483.374 274.396 484.808ZM307.35 481.648 295.6 484.894 292.58 481.564 308.23 477.125ZM329.184 468.728C329.115 468.945 328.963 469.125 328.76 469.228L280.96 482.785 274.565 471.7 310.365 437.16C310.48 437.041 310.644 436.982 310.809 437 310.991 437.019 311.156 437.117 311.26 437.267L329.136 468.233C329.225 468.383 329.242 468.564 329.184 468.728Z" fill="#FFFFFF"/><path d="M330.254 445.839 340.224 440.229 341.204 441.972 331.234 447.581Z" fill="#FFFFFF"/><path d="M331.751 454.84 332.291 452.914 343.307 456.003 342.767 457.929Z" fill="#FFFFFF"/><path d="M324.274 441.757 327.363 430.741 329.289 431.281 326.2 442.297Z" fill="#FFFFFF"/></g></svg>