<svg width="96" height="96" xmlns="http://www.w3.org/2000/svg" xmlns:xlink="http://www.w3.org/1999/xlink" xml:space="preserve" overflow="hidden"><g transform="translate(-396 -143)"><path d="M471.628 201.229C468.87 199.059 465.798 197.321 462.518 196.073L465.276 192.625C465.621 192.194 465.552 191.565 465.12 191.219 465.08 191.187 465.037 191.158 464.992 191.132L455.445 185.679C457.742 182.978 459.003 179.546 459 176L459 173 465 173C465.552 173 466 172.552 466 172 466 171.448 465.552 171 465 171L459.781 171 455.5 154.155 455.47 154.055C454.554 151.619 451.836 150.386 449.4 151.302 448.648 151.585 447.981 152.055 447.462 152.668L447 153.223C445.684 154.769 443.364 154.956 441.818 153.64 441.621 153.472 441.443 153.284 441.285 153.079L441.209 152.979C439.629 150.91 436.67 150.514 434.601 152.095 433.949 152.593 433.439 153.252 433.12 154.008L428.25 171 423 171C422.448 171 422 171.448 422 172 422 172.552 422.448 173 423 173L429 173 429 176C428.999 179.545 430.259 182.974 432.555 185.675L423.006 191.129C422.526 191.403 422.36 192.014 422.634 192.493 422.659 192.538 422.689 192.581 422.721 192.622L425.48 196.07C422.206 197.314 419.139 199.048 416.385 201.213 414.29 202.849 413.046 205.343 413 208L413 225.035 413.445 225.335C418.121 228.453 431.273 230.009 444.318 230.009 457.418 230.009 470.411 228.439 474.591 225.303L475 225 475 207.982C474.949 205.338 473.711 202.858 471.628 201.229ZM453.175 187.845C453.458 187.625 453.731 187.395 453.998 187.156L462.984 192.289 455.715 201.375C455.37 201.806 455.44 202.436 455.871 202.781 455.893 202.799 455.917 202.816 455.941 202.832L458.257 204.376 448.482 228C447.353 228.028 446.215 228.043 445.075 228.047ZM442.993 199 442.217 195 445.791 195 445.015 199ZM439.793 193 441.193 200.212 440.232 204.526 437.166 189.339C441.452 191.556 446.547 191.556 450.833 189.339L447.769 204.539 446.809 200.248 448.217 193ZM443.066 201 444.928 201 446.8 209.367 444 223.239 441.2 209.355ZM434.986 154.724C435.363 153.859 436.17 153.259 437.107 153.148 438.069 153.016 439.028 153.413 439.614 154.188L439.689 154.288C441.594 156.778 445.158 157.252 447.647 155.346 447.969 155.1 448.264 154.82 448.526 154.511L448.993 153.957C449.615 153.216 450.588 152.867 451.539 153.043 452.463 153.197 453.237 153.827 453.576 154.7L457.718 171 430.33 171ZM431 173 457 173 457 176C457 183.18 451.18 189 444 189 436.82 189 431 183.18 431 176ZM442.931 228.04C441.786 228.03 440.645 228.008 439.507 227.975L429.742 204.375 432.059 202.831C432.518 202.525 432.643 201.904 432.336 201.444 432.32 201.42 432.303 201.397 432.285 201.374L425.015 192.288 434 187.154C434.266 187.392 434.537 187.622 434.819 187.841ZM415 208.024C415.04 205.967 416.008 204.039 417.633 202.777 420.4 200.617 423.489 198.904 426.786 197.7L430.041 201.769 427.949 203.164C427.552 203.429 427.398 203.937 427.58 204.378L437.31 227.89C427.623 227.46 418.832 226.143 415.004 223.939ZM473 223.976C469.462 226.227 460.567 227.542 450.68 227.928L460.424 204.382C460.606 203.941 460.452 203.433 460.055 203.168L457.963 201.773 461.213 197.7C464.515 198.906 467.608 200.623 470.378 202.787 471.992 204.042 472.955 205.956 473 208Z" fill="#FFFFFF"/></g></svg>