<svg width="624" height="624" xmlns="http://www.w3.org/2000/svg" xmlns:xlink="http://www.w3.org/1999/xlink" xml:space="preserve" overflow="hidden"><g transform="translate(-328 -48)"><path d="M640 119.5C503.586 119.5 393 230.086 393 366.5 393 502.914 503.586 613.5 640 613.5 776.414 613.5 887 502.914 887 366.5 887 230.086 776.414 119.5 640 119.5ZM640 600.5C510.765 600.5 406 495.734 406 366.5 406 237.265 510.765 132.5 640 132.5 769.234 132.5 874 237.265 874 366.5 873.853 495.674 769.174 600.353 640 600.5Z" fill="#FFFFFF"/><path d="M523 256C548.252 255.982 572.245 267.028 588.65 286.225 590.984 288.953 595.087 289.273 597.815 286.94 600.543 284.607 600.864 280.503 598.53 277.775 573.127 248.114 532.722 236.057 495.219 246.945 491.771 247.947 489.788 251.554 490.789 255.002 491.791 258.451 495.398 260.434 498.846 259.432 506.695 257.154 514.827 255.998 523 256Z" fill="#FFFFFF"/><path d="M575 338.635C575 317.095 557.539 299.635 536 299.635 514.461 299.635 497 317.095 497 338.635 497 360.174 514.461 377.635 536 377.635 557.539 377.635 575 360.174 575 338.635ZM536 364.635C521.641 364.635 510 352.994 510 338.635 510 324.275 521.641 312.635 536 312.635 550.359 312.635 562 324.275 562 338.635 561.982 352.988 550.353 364.62 536 364.641Z" fill="#FFFFFF"/><path d="M784.833 246.945C747.332 236.058 706.929 248.116 681.529 277.775 679.125 280.441 679.338 284.551 682.005 286.955 684.671 289.359 688.781 289.145 691.185 286.479 691.26 286.396 691.332 286.311 691.402 286.225 713.479 260.436 748.607 249.956 781.206 259.432 784.654 260.434 788.261 258.451 789.263 255.002 790.264 251.554 788.281 247.947 784.833 246.945Z" fill="#FFFFFF"/><path d="M744 299.621C722.461 299.621 705 317.082 705 338.621 705 360.161 722.461 377.621 744 377.621 765.539 377.621 783 360.161 783 338.621 783 317.082 765.539 299.621 744 299.621ZM744 364.621C729.641 364.621 718 352.981 718 338.621 718 324.262 729.641 312.621 744 312.621 758.359 312.621 770 324.262 770 338.621 769.99 352.979 758.358 364.62 744 364.641Z" fill="#FFFFFF"/><path d="M640 438.11C597.359 437.996 561.363 469.774 556.189 512.1 555.766 515.665 558.313 518.898 561.878 519.321 563.707 519.538 565.542 518.969 566.927 517.755 608.671 480.897 671.329 480.897 713.073 517.755 715.773 520.12 719.88 519.849 722.245 517.149 723.459 515.764 724.028 513.929 723.811 512.1 718.637 469.774 682.641 437.996 640 438.11ZM640 477.11C616.393 477.016 593.27 483.792 573.447 496.61 573.416 496.637 573.369 496.635 573.343 496.604 573.316 496.573 573.318 496.527 573.349 496.5 587.821 459.69 629.393 441.581 666.204 456.053 684.719 463.332 699.372 477.985 706.651 496.5 706.661 496.538 706.639 496.577 706.601 496.588 706.585 496.592 706.568 496.591 706.553 496.585 686.727 483.779 663.603 477.018 640 477.123Z" fill="#FFFFFF"/></g></svg>