<svg width="96" height="96" xmlns="http://www.w3.org/2000/svg" xmlns:xlink="http://www.w3.org/1999/xlink" xml:space="preserve" overflow="hidden"><g transform="translate(-784 -322)"><path d="M845 352 796 352 796 402 868 402 868 364 845 364ZM843 364 821 364 821 354 843 354ZM831 366 831 376 809 376 809 366ZM821 388 821 378 843 378 843 388ZM819 378 819 388 798 388 798 378ZM831 390 831 400 809 400 809 390ZM833 390 855 390 855 400 833 400ZM845 388 845 378 866 378 866 388ZM833 376 833 366 855 366 855 376ZM798 354 819 354 819 364 798 364ZM807 366 807 376 798 376 798 366ZM798 390 807 390 807 400 798 400ZM857 400 857 390 866 390 866 400ZM866 376 857 376 857 366 866 366Z" fill="#FFFFFF"/><path d="M869.467 340.747 864.805 329.69 842.69 339.014 847.352 350.071ZM863.738 332.31 866.848 339.682 848.418 347.451 845.31 340.08Z" fill="#FFFFFF"/></g></svg>