<svg width="624" height="624" xmlns="http://www.w3.org/2000/svg" xmlns:xlink="http://www.w3.org/1999/xlink" xml:space="preserve" overflow="hidden"><g transform="translate(-328 -48)"><path d="M387.488 438.598C390.434 439.228 393.439 439.548 396.452 439.553 400.675 439.613 404.869 438.852 408.802 437.311 415.916 434.075 419.93 426.427 418.552 418.734 416.602 410.934 408.802 398.993 399.78 398.733L399.48 398.733C390.53 398.733 375.723 410.017 375.086 418.285 374.449 426.553 380.812 437.168 387.488 438.598ZM399.253 411.785C402.501 414.355 404.861 417.879 406 421.86 405.823 423.272 405.033 424.535 403.842 425.312 401.481 426.189 398.975 426.61 396.458 426.553 394.635 426.548 392.816 426.379 391.024 426.047 389.463 424.331 388.451 422.187 388.118 419.891 390.941 416.141 394.817 413.319 399.253 411.785Z" fill="#FFFFFF"/><path d="M814.655 387.462C817.165 388 819.725 388.272 822.292 388.275 825.899 388.331 829.482 387.684 832.842 386.37 838.911 383.62 842.34 377.102 841.168 370.543 839.55 363.9 832.842 353.721 825.172 353.5L824.918 353.5C817.294 353.5 804.677 363.113 804.119 370.153 803.684 377.554 807.881 384.449 814.655 387.462ZM824.327 366.747C826.197 368.6 827.612 370.86 828.461 373.351 828.304 373.719 828.096 374.062 827.844 374.371 826.066 375.018 824.183 375.324 822.292 375.275 821.072 375.273 819.852 375.177 818.646 374.989 817.987 374.085 817.499 373.067 817.209 371.986 819.173 369.743 821.602 367.955 824.327 366.747Z" fill="#FFFFFF"/><path d="M911.538 392.5C908.853 392.455 906.205 393.128 903.867 394.45 897.367 398.272 890.133 410.856 892.317 415.426 894.72 419.167 898.924 421.358 903.367 421.184 904.834 421.203 906.29 420.929 907.651 420.379 913.286 418.083 918.379 414.634 922.6 410.251 926.221 406.189 927.593 399.52 923.745 396.38 920.185 393.835 915.913 392.477 911.538 392.5Z" fill="#FFFFFF"/><path d="M508.947 413.3C502.447 417.122 495.213 429.699 497.396 434.275 499.801 438.016 504.003 440.207 508.447 440.034 509.914 440.054 511.372 439.778 512.73 439.222 518.367 436.929 523.46 433.479 527.68 429.095 531.301 425.039 532.672 418.37 528.824 415.23 525.275 412.707 521.023 411.361 516.669 411.383 513.969 411.314 511.301 411.977 508.947 413.3Z" fill="#FFFFFF"/><path d="M424.85 358.083C429.461 360.398 434.504 361.726 439.657 361.983L439.8 361.983C444.35 361.983 449.303 359.155 449.167 354.988 448.661 348.953 444.906 343.674 439.371 341.215 437.612 340.698 435.783 340.456 433.95 340.5 427.911 340.5 420.801 342.567 419.52 345.525 418.192 350.439 420.393 355.624 424.85 358.083Z" fill="#FFFFFF"/><path d="M883.568 288.104C891.19 292.362 899.724 294.726 908.45 295 909.191 295 909.925 295 910.654 294.928 920.324 294.336 928.223 286.982 929.504 277.379 929.887 267.681 924.375 250.884 913.254 247.082 910.94 246.364 908.525 246.024 906.104 246.074 894.404 246.074 878.505 252.314 875.404 259.945 871.634 269.306 875.748 283.859 883.568 288.104ZM887.319 265.282C892.808 261.34 899.372 259.173 906.13 259.074 907.119 259.033 908.109 259.14 909.068 259.393 912.61 260.596 916.802 270.398 916.549 276.871 916.464 278.919 912.708 281.773 909.847 281.954 909.393 281.954 908.938 282 908.476 282 901.967 281.74 895.609 279.959 889.912 276.8 887.398 273.528 886.45 269.316 887.319 265.282Z" fill="#FFFFFF"/><path d="M917.914 509.63C897.342 507.49 876.655 512.438 859.278 523.657 859.206 523.703 859.167 523.657 859.187 523.586 867.76 494.492 866.096 465.866 855.482 445.124 855.334 444.74 854.969 444.484 854.559 444.474 853.269 444.757 852.417 445.988 852.609 447.295 854.759 467.905 851.859 488.728 844.158 507.966 844.113 508.089 844.055 508.083 844.035 507.966 840.225 484.697 827.52 463.821 808.604 449.745 808.301 449.514 807.931 449.386 807.551 449.382 806.517 449.417 805.709 450.284 805.745 451.317 805.756 451.663 805.864 451.998 806.055 452.287 816.948 468.898 822.044 488.645 820.551 508.453 820.551 508.622 820.485 508.635 820.434 508.453 813.283 486.503 781.778 469.967 744 469.967 733.787 469.935 723.612 471.197 713.716 473.724L714.555 487.004C724.133 484.292 734.046 482.944 744 482.999 778.262 482.999 803.514 498.105 808.135 512.704 810.303 519.549 817.609 523.34 824.454 521.173 828.021 520.043 830.928 517.431 832.432 514.005 834.407 517.985 838.278 520.682 842.696 521.154 843.157 521.2 843.619 521.226 844.074 521.226 844.866 521.227 845.655 521.156 846.434 521.012 844.922 528.03 849.387 534.946 856.406 536.457 857.305 536.651 858.221 536.748 859.141 536.748 859.68 536.748 860.218 536.715 860.753 536.651 859.331 541.808 861.214 547.311 865.498 550.515 868.67 552.894 874 557.665 874 563.008 874 573.609 851.211 589.008 815.5 589.008 805.603 589.04 795.748 587.728 786.204 585.108 782.266 583.988 778.029 584.795 774.777 587.286 759.831 596.927 742.272 601.717 724.5 601.001 713.334 601.071 702.228 599.378 691.591 595.982 690.27 595.552 688.89 595.332 687.502 595.333 685.583 595.331 683.687 595.756 681.951 596.574 665.665 603.719 648.032 607.275 630.25 607 610.675 607.411 591.3 603.002 573.83 594.163 570.289 592.178 566.023 591.962 562.299 593.578 549.825 598.647 536.463 601.171 523 601.001 494.602 601.001 474.25 591.172 467.289 582.04 464.787 578.796 460.92 576.897 456.823 576.898L456.453 576.898C454.809 576.944 453.203 576.996 451.5 576.996 417.342 576.996 397.362 567.675 393.429 563.053 394.134 562.298 394.919 561.62 395.769 561.032 398.935 558.754 400.91 555.175 401.151 551.282 401.173 550.849 401.173 550.415 401.151 549.982 407.954 547.686 411.608 540.311 409.312 533.508 409.204 533.188 409.084 532.873 408.951 532.562 414.105 534.502 419.923 532.984 423.472 528.772 425.69 533.126 430.162 535.868 435.048 535.87L435.529 535.87C440.961 535.672 445.695 532.114 447.398 526.953L447.594 526.367C452.366 531.732 460.582 532.212 465.947 527.44 466.526 526.925 467.057 526.36 467.535 525.75 474.867 516.41 492.664 509.246 512.873 507.498 517.848 506.944 522.115 503.696 523.975 499.048 528.323 489.298 546.914 479.392 572.296 477.403L573.141 464.319C542.792 466.268 518.268 478.54 511.762 494.55 487.302 496.663 467.022 505.542 457.454 517.547 457.376 517.651 457.324 517.625 457.35 517.488 459.702 503.102 465.5 489.498 474.25 477.839 474.879 477.023 474.728 475.851 473.911 475.222 473.605 474.986 473.233 474.85 472.846 474.836 472.498 474.841 472.16 474.947 471.871 475.141 454.565 486.377 441.596 503.165 435.094 522.747 435.062 522.832 435.009 522.832 434.977 522.747 423.375 494.758 404.044 473.613 382.776 464.15 382.615 464.064 382.437 464.013 382.255 464 380.956 464 380.591 466.385 381.898 467.646 396.515 482.331 407.34 500.351 413.436 520.154 413.475 520.283 413.436 520.316 413.332 520.225 396.672 505.321 375.099 497.087 352.745 497.098 351.562 497.098 350.38 497.098 349.197 497.163 348.187 497.244 347.435 498.128 347.517 499.138 347.577 499.888 348.092 500.526 348.813 500.745 368.57 507.083 385.533 520.049 396.835 537.45 396.913 537.567 396.874 537.612 396.75 537.541 383.06 530.057 366.971 528.271 351.972 532.568 351.343 532.771 350.997 533.444 351.199 534.073 351.352 534.549 351.785 534.879 352.284 534.902 365.652 535.85 378.294 541.335 388.118 550.45 388.147 550.477 388.149 550.522 388.121 550.551 388.12 550.552 388.119 550.553 388.118 550.554 383.562 553.15 380.539 557.785 380 563.002 380 577.913 412.013 590.003 451.5 590.003 453.333 590.003 455.133 589.951 456.927 589.898 467.659 604.042 493.191 614.001 523 614.001 538.245 614.192 553.372 611.302 567.473 605.505 586.868 615.482 608.444 620.463 630.25 620 649.955 620.283 669.488 616.292 687.502 608.3 699.456 612.145 711.943 614.069 724.5 614.001 745.126 614.762 765.471 609.033 782.668 597.62 793.36 600.574 804.407 602.048 815.5 602.002 854.987 602.002 887 584.536 887 563.002 886.351 553.644 881.281 545.156 873.35 540.147 873.323 540.123 873.321 540.083 873.344 540.056 873.346 540.054 873.348 540.052 873.35 540.05 885.294 526.893 900.863 517.559 918.096 513.224 919.08 513.002 919.697 512.024 919.474 511.04 919.304 510.288 918.68 509.724 917.914 509.63Z" fill="#FFFFFF"/><path d="M508.927 261.414C513.413 261.413 517.798 260.085 521.531 257.599L532.022 250.605 546.322 264.905C544.911 271.011 544.215 277.261 544.249 283.527 544.268 333.35 562 375.841 590.6 395.1L581.097 542.572C580.867 546.152 583.581 549.242 587.161 549.475 587.305 549.475 587.448 549.475 587.591 549.475 591.022 549.482 593.868 546.822 594.091 543.397L603.841 392.103C603.991 389.73 602.835 387.464 600.824 386.195L599.193 385.161C573.329 368.801 557.261 329.859 557.261 283.534 557.215 277.765 557.921 272.013 559.361 266.426L559.842 264.619C560.439 262.376 559.795 259.986 558.152 258.346L537.437 237.631C535.245 235.439 531.812 235.099 529.234 236.818L514.323 246.764C509.817 249.62 503.861 248.433 500.796 244.066 497.814 239.587 499.024 233.539 503.5 230.552L529.5 213.217C533.387 210.715 538.486 211.221 541.805 214.439L567.85 240.491C570.06 242.702 573.53 243.027 576.112 241.264L578.328 239.75C580.281 238.429 582.312 237.229 584.412 236.156L586.895 234.855C589.747 233.388 591.102 230.059 590.086 227.017L572.686 174.835C571.802 172.181 569.32 170.39 566.524 170.389L543.586 170.389C538.201 170.389 533.836 166.023 533.836 160.639 533.836 155.254 538.201 150.889 543.586 150.889L578.25 150.889C582.447 150.889 586.173 153.576 587.5 157.557L609.281 222.915C610.228 225.752 612.989 227.576 615.969 227.335L618.505 227.133C621.943 226.854 625.187 226.724 628.079 226.724L631.329 226.724C634.919 226.724 637.829 223.814 637.829 220.224L637.829 142.478C637.83 140.503 636.933 138.635 635.391 137.401L598.159 107.611C593.955 104.249 593.271 98.1152 596.632 93.9095 600.059 89.8184 606.097 89.1455 610.341 92.382L653.65 127.06C655.97 128.9 657.319 131.703 657.309 134.665L657.309 220.9C657.299 224.303 659.916 227.138 663.309 227.4L666.306 227.634C670.855 227.985 674.755 228.46 678.363 229.09L682.178 229.74C685.714 230.365 689.085 228.005 689.71 224.47 689.776 224.096 689.809 223.717 689.809 223.338L689.809 117.335C689.809 111.951 694.175 107.585 699.559 107.585 704.944 107.585 709.309 111.951 709.309 117.335L709.309 245.385C709.312 246.61 709.657 247.81 710.304 248.85L710.811 249.656C716.708 259.856 721.087 270.862 723.811 282.325 724.37 284.385 725.906 286.04 727.919 286.751L741.114 291.412C743.869 292.386 746.935 291.402 748.609 289.007L763.494 267.745C764.964 265.643 765.061 262.873 763.74 260.674L743.168 226.38C740.406 221.757 741.913 215.771 746.535 213.008 746.556 212.995 746.579 212.983 746.6 212.97 751.234 210.312 757.141 211.79 759.977 216.318L785.977 259.653C787.958 262.952 787.813 267.108 785.607 270.261L725.267 356.405C725.013 356.677 724.775 356.961 724.552 357.257 724.398 357.455 724.255 357.661 724.123 357.875 716.811 370.566 704.403 379.508 690.05 382.431L687.346 383.081C684.271 383.818 682.173 386.66 682.374 389.816L692 542.41C692.226 546 695.32 548.726 698.909 548.5 702.499 548.274 705.226 545.18 705 541.59L695.659 394.404C712.105 390.28 726.228 379.769 734.9 365.2 735.136 364.954 735.353 364.692 735.55 364.414L796.214 277.749C801.364 270.393 801.705 260.696 797.086 252.997L771.086 209.661C764.931 198.707 751.063 194.816 740.108 200.97 729.154 207.124 725.262 220.992 731.417 231.947 731.629 232.324 731.852 232.696 732.086 233.062L750.5 263.716 740.848 277.45 735.492 275.565C732.563 264.323 728.137 253.526 722.336 243.461L722.336 117.335C722.336 104.771 712.15 94.5855 699.586 94.5855 687.021 94.5855 676.836 104.771 676.836 117.335L676.836 215.648C674.781 215.362 672.624 215.102 670.336 214.887L670.336 134.665C670.356 127.75 667.212 121.206 661.801 116.9L618.466 82.2355C608.654 74.3845 594.336 75.9735 586.485 85.7845 578.635 95.5955 580.223 109.913 590.034 117.764L624.836 145.604 624.836 213.796C623.295 213.841 621.683 213.912 620.019 214.017L599.83 153.475C596.748 144.176 588.047 137.902 578.25 137.915L543.586 137.915C531.021 137.915 520.836 148.1 520.836 160.665 520.836 173.229 531.021 183.415 543.586 183.415L561.857 183.415 576.021 225.918C575.091 226.444 574.174 226.984 573.291 227.536L551.002 205.248C543.26 197.739 531.364 196.558 522.298 202.401L496.298 219.736C485.844 226.707 483.02 240.832 489.991 251.286 494.212 257.616 501.319 261.417 508.927 261.414Z" fill="#FFFFFF"/></g></svg>